<?xml version="1.0" encoding="UTF-8"?>
<svg xmlns="http://www.w3.org/2000/svg" width="280" height="280" viewBox="0 0 280 280" fill="none">
  <g clip-path="url(#clip0_327_5103)">
    <path d="M140 280C217.32 280 280 217.32 280 140C280 62.6801 217.32 0 140 0C62.6801 0 0 62.6801 0 140C0 217.32 62.6801 280 140 280Z" fill="url(#paint0_linear_327_5103)"></path>
    <path d="M140 267.71C210.532 267.71 267.71 210.532 267.71 140C267.71 69.4678 210.532 12.29 140 12.29C69.4678 12.29 12.29 69.4678 12.29 140C12.29 210.532 69.4678 267.71 140 267.71Z" fill="url(#paint1_linear_327_5103)"></path>
    <path d="M140 14.29C209.43 14.29 265.71 70.57 265.71 140C265.71 209.43 209.43 265.71 140 265.71C70.57 265.71 14.29 209.43 14.29 140C14.29 70.57 70.57 14.29 140 14.29ZM140 10.29C105.35 10.29 72.78 23.78 48.28 48.28C23.78 72.78 10.29 105.35 10.29 140C10.29 174.65 23.78 207.22 48.28 231.72C72.78 256.22 105.35 269.71 140 269.71C174.65 269.71 207.22 256.22 231.72 231.72C256.22 207.22 269.71 174.65 269.71 140C269.71 105.35 256.22 72.78 231.72 48.28C207.22 23.78 174.65 10.29 140 10.29Z" fill="white"></path>
    <path d="M140 220.19C184.288 220.19 220.19 184.288 220.19 140C220.19 95.7123 184.288 59.8101 140 59.8101C95.7123 59.8101 59.8101 95.7123 59.8101 140C59.8101 184.288 95.7123 220.19 140 220.19Z" fill="white"></path>
    <path d="M48.1201 79.53L50.4001 76.57L65.0301 80.41L65.0901 80.33L57.6001 67.21L59.8801 64.25L74.4701 75.48L72.9401 77.47L60.9501 68.24L60.9201 68.28L69.1001 82.46L68.0801 83.78L52.2801 79.49L52.2501 79.53L64.2401 88.76L62.7101 90.75L48.1201 79.52V79.53Z" fill="white" stroke="white" stroke-miterlimit="10"></path>
    <path d="M85.8902 66.3799C84.7802 67.2499 83.6002 67.8499 82.3602 68.1799C81.1202 68.5199 79.9002 68.5999 78.7102 68.4299C77.5102 68.2599 76.3602 67.8599 75.2602 67.2199C74.1602 66.5799 73.1902 65.7199 72.3502 64.6399C71.5102 63.5599 70.9202 62.4099 70.5702 61.1799C70.2202 59.9499 70.1202 58.7399 70.2602 57.5399C70.4002 56.3399 70.7802 55.1799 71.4102 54.0599C72.0402 52.9399 72.9202 51.9499 74.0302 51.0899C75.1402 50.2199 76.3202 49.6199 77.5602 49.2899C78.8002 48.9499 80.0202 48.8699 81.2102 49.0399C82.4102 49.2099 83.5602 49.6099 84.6602 50.2499C85.7602 50.8899 86.7302 51.7499 87.5702 52.8299C88.4102 53.9099 89.0002 55.0599 89.3502 56.2899C89.7002 57.5199 89.8002 58.7299 89.6602 59.9299C89.5202 61.1299 89.1402 62.2899 88.5102 63.4099C87.8802 64.5299 87.0002 65.5199 85.8902 66.3799ZM84.4502 64.5299C85.2902 63.8799 85.9302 63.1399 86.3602 62.3099C86.7902 61.4799 87.0502 60.6199 87.1302 59.7199C87.2102 58.8299 87.1002 57.9299 86.8202 57.0199C86.5302 56.1099 86.0802 55.2599 85.4702 54.4699C84.8602 53.6799 84.1402 53.0299 83.3302 52.5299C82.5202 52.0299 81.6702 51.6999 80.7902 51.5599C79.9002 51.4099 79.0102 51.4499 78.0902 51.6599C77.1802 51.8699 76.3002 52.3099 75.4602 52.9599C74.6202 53.6099 73.9802 54.3499 73.5502 55.1799C73.1202 56.0099 72.8602 56.8699 72.7802 57.7699C72.7002 58.6599 72.8102 59.5599 73.0902 60.4699C73.3802 61.3799 73.8302 62.2299 74.4402 63.0199C75.0602 63.8099 75.7702 64.4599 76.5802 64.9599C77.3902 65.4599 78.2402 65.7899 79.1202 65.9299C80.0102 66.0799 80.9002 66.0399 81.8202 65.8299C82.7302 65.6199 83.6102 65.1799 84.4502 64.5299Z" fill="white" stroke="white" stroke-miterlimit="10"></path>
    <path d="M90.3999 40.7298L93.4199 39.4098L108.81 49.2098L108.86 49.1898L102.81 35.3198L105.11 34.3198L112.47 51.1898L109.55 52.4598L94.0699 42.7098L94.0199 42.7298L100.07 56.5998L97.7699 57.5998L90.4099 40.7298H90.3999Z" fill="white" stroke="white" stroke-miterlimit="10"></path>
    <path d="M115.28 31.46L127.01 29.25L127.44 31.55L118.17 33.3L119.19 38.69L127.81 37.06L128.24 39.36L119.62 40.99L120.71 46.79L130.44 44.96L130.87 47.26L118.68 49.56L115.27 31.47L115.28 31.46Z" fill="white" stroke="white" stroke-miterlimit="10"></path>
    <path d="M140.66 39.1099L133.84 28.4399L137.05 28.4899L141.95 36.6599L147.28 28.6599L150.34 28.7099L143.16 39.1499L143.03 46.9999L140.52 46.9599L140.65 39.1099H140.66Z" fill="white" stroke="white" stroke-miterlimit="10"></path>
    <path d="M168.9 32.1499L175 34.1699C175.76 34.4199 176.44 34.7499 177.03 35.1399C177.62 35.5399 178.1 35.9899 178.45 36.4999C178.8 37.0099 179.03 37.5799 179.12 38.2299C179.21 38.8699 179.13 39.5599 178.89 40.2999C178.56 41.2999 178.01 42.0299 177.23 42.4799C176.46 42.9299 175.58 43.1499 174.59 43.1499L174.57 43.1999C175.09 43.4099 175.54 43.7099 175.92 44.0999C176.3 44.4899 176.6 44.9399 176.81 45.4399C177.02 45.9399 177.14 46.4799 177.17 47.0499C177.2 47.6299 177.12 48.2099 176.92 48.7999C176.66 49.5899 176.27 50.2299 175.75 50.7299C175.23 51.2199 174.62 51.5799 173.92 51.8099C173.22 52.0399 172.47 52.1299 171.65 52.0999C170.84 52.0699 170 51.9099 169.14 51.6299L163.11 49.6399L168.89 32.1599L168.9 32.1499ZM166.19 48.3399L169.69 49.4999C170.05 49.6199 170.47 49.7199 170.93 49.7899C171.39 49.8599 171.85 49.8499 172.3 49.7499C172.75 49.6499 173.18 49.4599 173.57 49.1699C173.96 48.8799 174.26 48.4199 174.47 47.7899C174.81 46.7499 174.73 45.8599 174.22 45.1199C173.71 44.3799 172.88 43.8099 171.72 43.4299L168.2 42.2599L166.19 48.3299V48.3399ZM168.88 40.1899L172.13 41.2599C172.58 41.4099 173.01 41.4999 173.44 41.5399C173.87 41.5799 174.26 41.5399 174.63 41.4299C175 41.3099 175.32 41.1199 175.61 40.8499C175.89 40.5799 176.11 40.1999 176.27 39.7299C176.5 39.0399 176.47 38.3599 176.2 37.7099C175.92 37.0499 175.3 36.5599 174.35 36.2499L170.61 35.0099L168.9 40.1899H168.88Z" fill="white" stroke="white" stroke-miterlimit="10"></path>
    <path d="M194.48 42.9497L196.44 44.0997L193.93 63.9797L191.41 62.4997L192.12 57.6397L184.53 53.1797L180.65 56.1797L178.13 54.6997L194.48 42.9597V42.9497ZM192.44 55.2897L193.75 46.2597L193.71 46.2297L186.41 51.7397L192.44 55.2897Z" fill="white" stroke="white" stroke-miterlimit="10"></path>
    <path d="M216.34 64.8199C216.42 63.9699 216.28 63.1399 215.94 62.3299C215.6 61.5199 215.12 60.8199 214.49 60.2399C213.72 59.5299 212.9 59.0299 212.01 58.7399C211.13 58.4499 210.23 58.3499 209.33 58.4399C208.43 58.5299 207.55 58.7899 206.69 59.2399C205.83 59.6799 205.04 60.2899 204.34 61.0499C203.68 61.7599 203.17 62.5399 202.81 63.3899C202.45 64.2399 202.26 65.1099 202.25 65.9899C202.24 66.8799 202.41 67.7499 202.78 68.6099C203.15 69.4699 203.73 70.2699 204.52 70.9999C205.3 71.7199 206.13 72.1999 207.01 72.4199C207.89 72.6499 208.8 72.6599 209.74 72.4699L210.21 75.0699C209.98 75.1099 209.61 75.1499 209.12 75.1699C208.62 75.1899 208.04 75.1399 207.38 75.0099C206.72 74.8799 206 74.6399 205.22 74.2899C204.44 73.9399 203.67 73.3999 202.89 72.6799C201.82 71.6899 201.04 70.5899 200.55 69.3799C200.06 68.1699 199.82 66.9599 199.83 65.7399C199.83 64.5199 200.06 63.3399 200.52 62.2099C200.97 61.0799 201.59 60.0899 202.38 59.2399C203.35 58.1999 204.41 57.3899 205.57 56.8299C206.73 56.2699 207.92 55.9499 209.14 55.8799C210.36 55.8099 211.56 55.9999 212.76 56.4499C213.96 56.8999 215.08 57.6099 216.13 58.5799C217.02 59.4099 217.74 60.3899 218.29 61.5399C218.83 62.6799 219.05 63.8599 218.94 65.0799L216.33 64.8199H216.34Z" fill="white" stroke="white" stroke-miterlimit="10"></path>
    <path d="M226.29 70.1199L227.75 72.1599L221.28 76.7899L221.4 76.9599L232.63 78.9699L234.67 81.8099L222.56 79.4999L220.06 93.0199L217.93 90.0499L220.39 77.6799L220.27 77.5099L212.79 82.8699L211.33 80.8299L226.29 70.1099V70.1199Z" fill="white" stroke="white" stroke-miterlimit="10"></path>
    <path d="M55.9199 196.65L45.6399 201.85C45.0799 201.53 44.5399 201.13 43.9899 200.64C43.4499 200.15 42.9299 199.63 42.4299 199.06C41.9299 198.49 41.4799 197.89 41.0599 197.26C40.6399 196.63 40.2899 196.02 39.9899 195.43C39.1499 193.78 38.6999 192.15 38.6399 190.56C38.5699 188.97 38.8199 187.47 39.3699 186.07C39.9199 184.67 40.7399 183.4 41.8299 182.27C42.9199 181.14 44.1999 180.19 45.6699 179.45C47.2199 178.67 48.7899 178.19 50.3799 178.02C51.9699 177.85 53.4799 177.96 54.9099 178.36C56.3399 178.76 57.6499 179.44 58.8499 180.4C60.0499 181.36 61.0099 182.59 61.7699 184.08C62.6799 185.88 63.1799 187.47 63.2799 188.85C63.3699 190.23 63.1899 191.52 62.7399 192.72L59.6399 191.93C60.0599 190.7 60.1999 189.56 60.0699 188.5C59.9399 187.44 59.6199 186.41 59.1199 185.42C58.5499 184.3 57.8199 183.4 56.9199 182.72C56.0199 182.04 55.0399 181.57 53.9699 181.31C52.8999 181.04 51.7699 180.99 50.5799 181.15C49.3899 181.31 48.2299 181.68 47.0899 182.26C45.9099 182.86 44.9099 183.6 44.0999 184.5C43.2799 185.4 42.6699 186.37 42.2699 187.43C41.8699 188.49 41.6899 189.58 41.7299 190.71C41.7699 191.84 42.0699 192.95 42.6099 194.04C43.0799 194.98 43.6199 195.82 44.2299 196.56C44.8399 197.3 45.4699 197.88 46.1199 198.29L51.9199 195.36L49.7299 191.03L52.3799 189.69L55.8999 196.66L55.9199 196.65Z" fill="white" stroke="white" stroke-width="0.75" stroke-miterlimit="10"></path>
    <path d="M72.2998 200.85L62.1398 210.94C61.6198 211.45 61.1598 212.05 60.7298 212.73C60.3098 213.41 60.0098 214.14 59.8498 214.91C59.6898 215.68 59.6998 216.46 59.8998 217.25C60.0998 218.04 60.5598 218.8 61.2798 219.53C62.0098 220.26 62.7598 220.73 63.5498 220.93C64.3398 221.13 65.1198 221.15 65.8898 221C66.6598 220.84 67.3898 220.55 68.0798 220.13C68.7698 219.71 69.3598 219.25 69.8798 218.73L80.0398 208.64L82.1298 210.74L71.6198 221.18C70.6498 222.14 69.6198 222.86 68.5298 223.34C67.4398 223.82 66.3298 224.07 65.2198 224.1C64.1098 224.13 63.0298 223.94 61.9898 223.52C60.9498 223.1 60.0098 222.47 59.1698 221.62C58.3298 220.77 57.6998 219.83 57.2898 218.79C56.8798 217.75 56.6898 216.67 56.7298 215.56C56.7698 214.45 57.0298 213.34 57.5198 212.25C57.9998 211.16 58.7298 210.13 59.6998 209.17L70.2098 198.73L72.2998 200.83V200.85Z" fill="white" stroke="white" stroke-width="0.75" stroke-miterlimit="10"></path>
    <path d="M95.2899 219.3L97.6499 220.59L94.6699 245.58L91.6299 243.92L92.4699 237.8L83.3399 232.81L78.6699 236.84L75.6299 235.18L95.2799 219.29L95.2899 219.3ZM92.8499 234.85L94.4099 223.48L94.3599 223.45L85.5899 230.88L92.8499 234.85Z" fill="white" stroke="white" stroke-width="0.75" stroke-miterlimit="10"></path>
    <path d="M112.31 226.92L119.79 228.69C121.15 229.01 122.23 229.48 123.02 230.08C123.81 230.68 124.39 231.35 124.75 232.08C125.12 232.81 125.31 233.58 125.33 234.39C125.35 235.2 125.28 235.95 125.11 236.66C124.94 237.39 124.65 238.06 124.25 238.68C123.85 239.3 123.36 239.83 122.78 240.27C122.2 240.71 121.54 241.04 120.8 241.26C120.06 241.48 119.28 241.54 118.46 241.44L122.05 253.24L118.44 252.39L115.39 241.09L112.17 240.33L109.81 250.35L106.92 249.67L112.29 226.93L112.31 226.92ZM112.83 237.62L116.62 238.51C117.18 238.64 117.75 238.72 118.32 238.76C118.89 238.79 119.43 238.73 119.92 238.58C120.41 238.42 120.84 238.14 121.22 237.72C121.59 237.3 121.87 236.7 122.05 235.93C122.23 235.16 122.25 234.5 122.1 233.96C121.95 233.42 121.69 232.97 121.32 232.61C120.95 232.25 120.5 231.96 119.97 231.73C119.44 231.5 118.9 231.32 118.34 231.19L114.55 230.3L112.82 237.62H112.83Z" fill="white" stroke="white" stroke-width="0.75" stroke-miterlimit="10"></path>
    <path d="M141.49 230.89L144.18 230.81L154.2 253.9L150.74 254L148.38 248.29L137.98 248.59L135.98 254.42L132.52 254.52L141.49 230.89ZM147.22 245.55L142.84 234.95H142.78L138.95 245.79L147.22 245.55Z" fill="white" stroke="white" stroke-width="0.75" stroke-miterlimit="10"></path>
    <path d="M159.9 229.26L163.59 228.04L181.06 242.49L181.12 242.47L175.08 224.24L177.89 223.31L185.23 245.49L181.65 246.67L164.06 232.26L164 232.28L170.04 250.51L167.23 251.44L159.89 229.26H159.9Z" fill="white" stroke="white" stroke-width="0.75" stroke-miterlimit="10"></path>
    <path d="M191.53 218.62L185.71 222.59L184.04 220.14L198.13 210.54L199.8 212.99L193.98 216.96L205.46 233.81L203.01 235.48L191.53 218.63V218.62Z" fill="white" stroke="white" stroke-width="0.75" stroke-miterlimit="10"></path>
    <path d="M203.26 205.67L212.54 195.03L214.78 196.98L207.45 205.38L212.7 209.96L219.52 202.14L221.76 204.09L214.94 211.91L220.59 216.83L228.28 208.01L230.52 209.96L220.88 221.02L203.27 205.67H203.26Z" fill="white" stroke="white" stroke-width="0.75" stroke-miterlimit="10"></path>
    <path d="M217.15 187.83L223.21 175.08L225.89 176.36L221.1 186.43L227.39 189.42L231.85 180.05L234.53 181.33L230.07 190.7L236.83 193.92L241.86 183.35L244.54 184.63L238.24 197.88L217.14 187.85L217.15 187.83Z" fill="white" stroke="white" stroke-width="0.75" stroke-miterlimit="10"></path>
    <path d="M265.71 160.5H13.5299L14.2299 140.58L11.4199 120.67H266.64V136.72L265.71 160.5Z" fill="white"></path>
    <path d="M55.7704 136.54H44.4404L39.9804 126.18L35.5204 136.54H24.1904L32.8704 144.74L30.4604 154.99L39.9804 149.68L49.5004 154.99L47.0904 144.74L55.7704 136.54Z" fill="#B46C00"></path>
    <path d="M251.77 136.54H240.44L235.98 126.18L231.52 136.54H220.19L228.87 144.74L226.46 154.99L235.98 149.68L245.5 154.99L243.09 144.74L251.77 136.54Z" fill="#B46C00"></path>
    <path d="M123.96 85.6499L105.79 113.31L106 113.52C106.78 113.1 107.83 112.78 109.15 112.57C110.47 112.36 111.77 112.25 113.05 112.25C116.4 112.25 119.46 112.88 122.24 114.15C125.02 115.42 127.42 117.14 129.46 119.32C131.49 121.5 133.06 124.03 134.16 126.92C135.26 129.81 135.82 132.87 135.82 136.1C135.82 139.97 135.14 143.49 133.79 146.66C132.44 149.83 130.56 152.52 128.18 154.73C125.79 156.95 122.94 158.65 119.63 159.85C116.32 161.05 112.73 161.64 108.89 161.64C105.05 161.64 101.26 161.06 97.9902 159.9C94.7102 158.74 91.8802 157.07 89.4902 154.89C87.1002 152.71 85.2502 150.03 83.9302 146.87C82.6102 143.7 81.9502 140.15 81.9502 136.21C81.9502 132.27 82.6102 128.7 83.9302 125.5C85.2502 122.3 86.9402 119.04 89.0102 115.74L108.36 85.6599H123.97L123.96 85.6499ZM95.4202 136C95.4202 137.9 95.7802 139.68 96.4902 141.33C97.2002 142.98 98.1802 144.43 99.4302 145.66C100.68 146.89 102.14 147.86 103.81 148.56C105.48 149.26 107.28 149.62 109.21 149.62C111.14 149.62 112.93 149.27 114.61 148.56C116.28 147.86 117.75 146.89 118.99 145.66C120.24 144.43 121.22 142.99 121.93 141.33C122.64 139.68 123 137.9 123 136C123 134.1 122.64 132.32 121.93 130.67C121.22 129.02 120.24 127.57 118.99 126.34C117.74 125.11 116.28 124.14 114.61 123.44C112.93 122.74 111.14 122.39 109.21 122.39C107.28 122.39 105.48 122.74 103.81 123.44C102.13 124.15 100.67 125.11 99.4302 126.34C98.1802 127.57 97.2002 129.01 96.4902 130.67C95.7802 132.32 95.4202 134.1 95.4202 136Z" fill="#B46C00"></path>
    <path d="M142.13 123.02C142.13 117.11 142.61 112.06 143.57 107.87C144.53 103.68 145.8 100.16 147.37 97.3201C148.94 94.4701 150.7 92.1801 152.66 90.4601C154.62 88.7401 156.62 87.4401 158.65 86.5501C160.68 85.6701 162.64 85.0901 164.53 84.8101C166.42 84.5301 168.07 84.3901 169.5 84.3901C170.93 84.3901 172.58 84.5301 174.47 84.8101C176.36 85.0901 178.32 85.6701 180.35 86.5501C182.38 87.4301 184.38 88.7301 186.34 90.4601C188.3 92.1901 190.06 94.4701 191.63 97.3201C193.2 100.17 194.46 103.69 195.42 107.87C196.38 112.06 196.86 117.11 196.86 123.02C196.86 128.93 196.38 133.98 195.42 138.17C194.46 142.36 193.19 145.88 191.63 148.72C190.06 151.57 188.3 153.86 186.34 155.58C184.38 157.31 182.38 158.61 180.35 159.49C178.32 160.37 176.36 160.95 174.47 161.23C172.58 161.51 170.92 161.65 169.5 161.65C168.08 161.65 166.42 161.51 164.53 161.23C162.64 160.95 160.68 160.37 158.65 159.49C156.62 158.61 154.62 157.31 152.66 155.58C150.7 153.86 148.93 151.57 147.37 148.72C145.8 145.87 144.54 142.35 143.57 138.17C142.61 133.98 142.13 128.93 142.13 123.02ZM154.96 123.02C154.96 125.34 155.12 128.03 155.44 131.1C155.76 134.16 156.42 137.06 157.42 139.81C158.42 142.55 159.88 144.88 161.8 146.78C163.72 148.68 166.29 149.63 169.5 149.63C172.71 149.63 175.27 148.68 177.2 146.78C179.12 144.88 180.58 142.56 181.58 139.81C182.58 137.07 183.24 134.16 183.56 131.1C183.88 128.04 184.04 125.35 184.04 123.02C184.04 120.69 183.88 118.01 183.56 114.94C183.24 111.88 182.58 108.98 181.58 106.23C180.58 103.49 179.12 101.16 177.2 99.2601C175.28 97.3601 172.71 96.4101 169.5 96.4101C166.29 96.4101 163.73 97.3601 161.8 99.2601C159.88 101.16 158.41 103.48 157.42 106.23C156.42 108.97 155.76 111.88 155.44 114.94C155.12 118 154.96 120.69 154.96 123.02Z" fill="#B46C00"></path>
    <path d="M97.4302 171.96H106.7C108.25 171.96 109.75 172.2 111.19 172.67C112.63 173.14 113.9 173.86 115.01 174.82C116.12 175.78 117 176.99 117.67 178.45C118.33 179.91 118.67 181.62 118.67 183.59C118.67 185.56 118.29 187.3 117.52 188.76C116.76 190.22 115.77 191.42 114.56 192.37C113.35 193.32 112.01 194.03 110.54 194.5C109.07 194.97 107.62 195.21 106.2 195.21H97.4302V171.97V171.96ZM104.74 191.46C106.05 191.46 107.28 191.31 108.45 191.02C109.61 190.73 110.63 190.27 111.49 189.64C112.35 189.02 113.04 188.21 113.53 187.21C114.03 186.21 114.28 185.01 114.28 183.58C114.28 182.15 114.06 180.98 113.62 179.97C113.18 178.96 112.56 178.15 111.78 177.53C110.99 176.91 110.06 176.45 108.99 176.15C107.91 175.86 106.73 175.71 105.45 175.71H101.63V191.46H104.75H104.74Z" fill="#B46C00"></path>
    <path d="M129.44 171.96H133.06L143.2 195.2H138.41L136.22 189.88H126.02L123.89 195.2H119.2L129.44 171.96ZM134.76 186.34L131.14 176.89L127.45 186.34H134.76Z" fill="#B46C00"></path>
    <path d="M148.29 185.25L139.45 171.96H144.7L150.48 181.21L156.33 171.96H161.32L152.48 185.25V195.19H148.29V185.25Z" fill="#B46C00"></path>
    <path d="M174.18 176.95C173.74 176.32 173.14 175.85 172.4 175.56C171.66 175.27 170.88 175.12 170.06 175.12C169.57 175.12 169.1 175.18 168.65 175.28C168.2 175.39 167.79 175.57 167.42 175.81C167.05 176.05 166.76 176.36 166.54 176.75C166.32 177.13 166.21 177.59 166.21 178.11C166.21 178.9 166.49 179.5 167.04 179.91C167.59 180.33 168.28 180.69 169.1 180.99C169.92 181.3 170.82 181.59 171.79 181.88C172.77 182.17 173.66 182.56 174.48 183.06C175.3 183.56 175.99 184.23 176.54 185.06C177.09 185.89 177.37 187 177.37 188.38C177.37 189.63 177.14 190.72 176.67 191.65C176.2 192.58 175.58 193.35 174.79 193.96C174 194.57 173.09 195.03 172.05 195.34C171.01 195.65 169.91 195.8 168.76 195.8C167.3 195.8 165.89 195.56 164.54 195.08C163.19 194.6 162.02 193.79 161.05 192.65L164.21 189.63C164.72 190.4 165.39 190.99 166.22 191.42C167.05 191.85 167.93 192.06 168.86 192.06C169.35 192.06 169.83 191.99 170.32 191.86C170.81 191.73 171.25 191.53 171.65 191.27C172.05 191.01 172.37 190.67 172.61 190.27C172.85 189.87 172.98 189.4 172.98 188.88C172.98 188.03 172.7 187.37 172.15 186.91C171.6 186.45 170.91 186.06 170.09 185.74C169.27 185.42 168.37 185.12 167.4 184.84C166.42 184.56 165.53 184.17 164.71 183.67C163.89 183.17 163.2 182.52 162.65 181.7C162.1 180.88 161.82 179.78 161.82 178.4C161.82 177.2 162.07 176.16 162.57 175.28C163.07 174.41 163.72 173.68 164.53 173.1C165.34 172.52 166.26 172.09 167.31 171.8C168.35 171.52 169.41 171.37 170.5 171.37C171.74 171.37 172.94 171.56 174.11 171.93C175.27 172.3 176.32 172.92 177.25 173.77L174.19 176.95H174.18Z" fill="#B46C00"></path>
  </g>
  <defs>
    <linearGradient id="paint0_linear_327_5103" x1="41.01" y1="41.01" x2="238.99" y2="238.99" gradientUnits="userSpaceOnUse">
      <stop stop-color="#B46C00"></stop>
      <stop offset="1" stop-color="#B46C00"></stop>
    </linearGradient>
    <linearGradient id="paint1_linear_327_5103" x1="49.74" y1="49.74" x2="230.26" y2="230.26" gradientUnits="userSpaceOnUse">
      <stop offset="0.09375" stop-color="#DF8600"></stop>
    </linearGradient>
    <clipPath id="clip0_327_5103">
      <rect width="280" height="280" fill="white"></rect>
    </clipPath>
  </defs>
</svg>
