<?xml version="1.0" encoding="UTF-8"?>
<svg xmlns="http://www.w3.org/2000/svg" id="Layer_3" width="280" height="280" viewBox="0 0 280 280">
  <defs>
    <style>.cls-1{fill:#fff;}.cls-2{fill:#239900;}.cls-3{fill:#205100;}</style>
  </defs>
  <g id="TRACE">
    <path class="cls-2" d="m140.62,280.12C63.55,280.66-.43,217.74-.12,139.41.19,62.5,63.03.04,139.71-.12c77.46-.17,140.69,63.09,140.41,140.58-.28,76.98-62.77,139.47-139.5,139.66Zm99.81-142.15c-.53-53.71-46.4-100.33-104.2-98.44-51.84,1.69-98.52,45.84-96.7,103.98,1.65,52.58,45.93,98.65,103.9,96.94,53.11-1.56,98.19-46.08,97-102.48Zm15.12,1.66c-.42-5.15-.78-10.3-1.29-15.44-.56-5.55-1.91-10.95-3.45-16.29-1.97-6.84-4.55-13.46-7.82-19.8-1.15-2.22-2.4-4.39-3.69-6.53-.18-.29-.86-.49-1.23-.41-.69.15-.89.74-.6,1.41.38.87.76,1.75,1.19,2.6,1.65,3.3,3.45,6.54,4.94,9.9,2.55,5.74,4.51,11.69,6.02,17.81,2.01,8.18,3.17,16.46,3.34,24.87.14,6.85-.23,13.7-1.5,20.43-1.01,5.34-2.2,10.67-3.76,15.87-1.99,6.62-4.65,13.02-8.12,19.04-.53.92-.97,1.92-1.26,2.93-.1.35.34,1.17.66,1.25.42.11,1.14-.16,1.44-.52.55-.66.92-1.48,1.32-2.26,3.59-7.1,6.71-14.38,8.95-22.04,3.13-10.72,4.65-21.66,4.85-32.84Zm-230.87-1c0,8.62.57,15.76,1.93,22.81,2.04,10.59,5.36,20.76,10.36,30.35.86,1.66,1.68,3.33,2.52,5.01.39.77,1.11.92,1.69.53.34-.23.46-.99.42-1.49-.03-.48-.36-.95-.61-1.41-3.59-6.62-6.67-13.47-8.83-20.68-3-9.97-4.88-20.16-5.1-30.59-.2-9.17.6-18.26,2.57-27.25,2.1-9.57,5.36-18.7,9.89-27.37,1.01-1.94,2.04-3.87,2.97-5.84.16-.35,0-1.23-.21-1.3-.47-.17-1.08-.02-1.61.09-.17.04-.3.35-.41.56-2.02,3.92-4.25,7.75-6.01,11.79-3.05,7-5.34,14.25-6.96,21.75-1.75,8.1-2.47,16.26-2.61,23.06Zm84.5,115.34c.6,0,.99,0,1.37,0,2.43-.02,4.48-1.29,5.08-3.42,1.02-3.61.03-6.12-3.49-7.32-3.08-1.05-6.22-1.91-9.31-2.93-1.04-.34-1.47-.02-1.69.96-.24,1.08-.51,2.16-.82,3.23-1.28,4.34-2.63,8.67-3.84,13.03-.68,2.44-.57,2.47,1.87,2.98.1.02.22-.04.38-.07.58-2.1,1.16-4.2,1.73-6.3.08-.31.08-.65.21-.92.19-.38.42-.95.73-1.03,1.57-.37,4.94,1.27,5.53,2.79.96,2.48,1.75,5.02,2.57,7.56.51,1.58,1.97,2.38,3.77,1.92-1.22-3.49-1.66-7.26-4.1-10.48Zm-43.61-17.06c-.1-.05-.2-.1-.3-.15,0-.35-.03-.7,0-1.04.43-3.91.86-7.82,1.3-11.73.19-1.66.44-3.31.61-4.97.14-1.31-1.07-1.66-1.84-2.24-.15-.11-.97.46-1.31.86-3.8,4.44-7.57,8.91-11.35,13.37-.86,1.02-.85,1.49.1,2.27.86.71,1.31.62,2.16-.43,1.48-1.82,2.96-3.64,4.46-5.45,1.46-1.75,2.93-3.49,4.45-5.29.06.2.13.31.12.41-.61,5.41-1.18,10.82-1.86,16.22-.17,1.36-.13,2.4,1.08,3.34.76.59,1.04.68,1.66-.09,2.2-2.72,4.48-5.39,6.73-8.06,1.74-2.07,3.49-4.14,5.24-6.2.83-.98-.06-1.39-.6-1.92-.55-.54-.96-.43-1.46.17-2.37,2.84-4.78,5.65-7.17,8.47-.68.81-1.35,1.63-2.02,2.45Zm141.93,5.23c-.28-.03-.4,0-.49-.05-4.98-2.3-9.96-4.58-14.91-6.94-1.17-.56-2.09-.93-3.31.07-.77.63-.82.93-.34,1.67,1.02,1.57,1.99,3.16,2.95,4.77,2.19,3.65,4.36,7.31,6.52,10.97.36.61.79,1,1.4.44.53-.49,1.77-.73,1.09-1.87-1.86-3.1-3.79-6.16-5.68-9.24-.57-.93-1.12-1.88-1.87-3.13.71.16,1.1.17,1.42.33,4.6,2.17,9.2,4.34,13.78,6.56,2.07,1.01,2.69.95,4.43-.83-.54-.8-1.13-1.59-1.64-2.44-2.76-4.6-5.51-9.21-8.24-13.84-.44-.75-.83-1.2-1.77-.67-.87.48-1.3.98-.7,1.95.87,1.42,1.71,2.87,2.57,4.3,1.57,2.61,3.15,5.21,4.79,7.93ZM92.45,40.08c-.09.07-.19.15-.28.22-.56-.29-1.12-.58-1.67-.88-4.62-2.48-9.26-4.94-13.86-7.46-1.23-.68-1.97.26-2.78.75-.22.13-.17,1.12.06,1.56,2.82,5.3,5.73,10.55,8.52,15.86.7,1.33,1.36.55,2.11.26.9-.35.81-.88.41-1.6-2.14-3.86-4.25-7.73-6.36-11.6-.14-.25-.2-.54-.4-1.08,1.28.62,2.32,1.09,3.33,1.62,4.11,2.18,8.21,4.36,12.31,6.56,1.16.62,2.17.14,2.92-.6.27-.26-.12-1.23-.26-1.86-.06-.26-.26-.49-.39-.73-2.63-4.9-5.26-9.8-7.87-14.72-.36-.68-.69-1.25-1.51-.68-.66.46-1.7.71-1.01,1.97,1.9,3.45,3.73,6.93,5.59,10.4.36.68.76,1.34,1.14,2.01Zm76.63-10.91c.16-.12.2-.16.23-.16.16-.01.32-.03.47-.01,2.09.17,3.84-.58,4.9-2.34,1.07-1.78,1.16-3.76.22-5.7-.95-1.98-2.88-2.53-4.74-3.07-2.25-.65-4.54-1.13-6.82-1.69-.81-.2-1.85-.79-2.35-.48-.55.33-.65,1.48-.85,2.29-1.34,5.44-2.66,10.89-3.98,16.34-.26,1.1.16,1.59,1.53,1.84.99.18,1.08-.58,1.24-1.23.39-1.58.76-3.17,1.16-4.75.76-3.01.77-3.03,3.77-2.12,1.39.42,2.67,1.02,3.21,2.57.81,2.28,1.73,4.53,2.5,6.82.55,1.61,1.77,2.4,3.81,2.06-1.08-3.64-2.09-7.25-4.32-10.35Zm-82.48,225.13c1.91.46,3.09-.75,3.92-2.62.51-1.16,1.11-2.29,1.74-3.39.49-.85.36-1.26-.59-1.69-1.8-.83-3.57-1.74-5.25-2.8-.94-.59-1.47-.52-2.06.34-.67.98-.06,1.44.69,1.87,1.07.61,2.16,1.19,3.21,1.82.24.15.53.43.56.68.15,1.09-1.66,3.3-2.72,3.14-1.71-.25-3.5-.52-5.04-1.23-2.77-1.28-4.29-4.21-3.83-6.82.46-2.61,1.61-4.89,3.55-6.74,3.02-2.88,8.68-2.05,10.59,1.68.51,1,.59,2.26.72,3.42.1.86.4,1.28,1.29,1.37.93.09,1.42-.34,1.39-1.17-.04-1.21,0-2.52-.43-3.62-1.69-4.24-7.56-7.03-11.92-5.68-4.22,1.3-6.54,4.46-7.73,8.53-1.11,3.79-.02,7.05,2.85,9.62,2.44,2.18,5.36,3.4,9.03,3.29Zm56.27,13.42c3.6-.44,7.08-.72,10.49-1.33,2.06-.37,3.56-1.74,4.52-3.72,1.53-3.15,1.53-6.35.64-9.63-1.31-4.79-4.39-7-9.31-6.64-2.3.16-4.59.44-6.89.57-1.05.06-1.28.51-1.15,1.45.17,1.18.3,2.36.4,3.55.43,5.14.85,10.29,1.3,15.77Zm36.16-8.99c-.23-.28-.59-.55-.72-.91-.5-1.38-.8-2.84-1.43-4.15-.56-1.18-.11-1.49.89-1.84,2.74-.95,5.44-1.98,8.17-2.97.63-.23,1.02-.45.78-1.28-.41-1.41-.55-1.54-1.98-1.04-.34.12-.66.27-1,.39-2.3.87-4.59,1.75-6.9,2.59-.59.22-1.31.45-1.64-.38-.52-1.33-.99-2.68-1.43-4.04-.22-.7.02-1.13.82-1.4,2.94-.97,5.85-2.04,8.77-3.08,1.17-.42,1.48-.96,1.07-1.93-.43-.99-1.07-1.01-2.03-.63-3.8,1.51-7.62,2.97-11.47,4.34-.93.33-1.11.63-.75,1.5,1.05,2.61,2.09,5.23,3.06,7.87,1.16,3.13,2.27,6.27,3.37,9.42.25.72.6.91,1.33.64,4.27-1.6,8.56-3.15,12.83-4.76,1.07-.4.3-1.23.23-1.83-.06-.56-.42-.86-1.12-.59-2.78,1.07-5.58,2.07-8.37,3.11-.74.27-1.48.56-2.48.95Zm-59.32,7.46c5.37.11,10.39,1.09,15.46,1.14.23-2.19.06-2.4-1.75-2.57-.16-.01-.32-.02-.48-.03-3.09-.29-6.17-.57-9.26-.87-.26-.03-.52-.14-.8-.22.16-2.03.28-4.01.49-5.98.02-.23.51-.58.78-.58,1.27.03,2.54.14,3.8.26,1.9.17,3.79.41,5.69.56,1.02.08,1.67-.68,1.24-1.55-.22-.45-.91-.87-1.44-.94-2.84-.36-5.69-.64-8.54-.89-1.01-.09-1.26-.48-1.05-1.48.23-1.12.36-2.29.34-3.43-.02-.94.31-1.22,1.16-1.13.2.02.4,0,.6.03,3,.29,6.01.58,9.01.88.68.07,1.35.25,1.53-.78.24-1.36,0-1.7-1.39-1.83-3.8-.35-7.59-.71-11.39-1.11-1.86-.2-2.07-.03-2.21,1.86-.22,2.93-.52,5.86-.81,8.78-.32,3.24-.65,6.47-1,9.88Zm122.34-51.77c.27-3.41-3.73-7.28-7.6-5.38-.99.49-1.93,1.09-2.85,1.71-1.45.98-2.84,2.05-4.29,3.02-.88.59-1.9.83-2.78.11-.92-.74-1.3-1.77-.99-2.99.47-1.84,1.65-3.15,3.14-4.22,1.2-.86,2.43-.62,3.73-.13,1.15.44,1.5-.67,1.81-1.41.1-.24-.38-.92-.75-1.14-1.16-.71-2.48-.96-3.78-.47-3.49,1.31-5.89,3.62-6.78,7.38-.47,1.98.2,3.51,1.59,4.82,1.55,1.47,3.37,1.78,5.28.85,1.25-.6,2.43-1.34,3.59-2.1,1.19-.79,2.29-1.72,3.49-2.5,1.18-.77,2.7-.69,3.57.08.93.82,1.41,2.44.76,3.58-.77,1.36-1.68,2.7-2.79,3.78-1.33,1.28-3,1.7-4.84.85-1.13-.52-1.71-.2-2.14,1.05-.38,1.1.45,1.37,1.23,1.64,2.43.84,4.66.55,6.77-1,2.58-1.9,4.39-4.23,4.65-7.53ZM152.03,22.05c0-2.74-.04-4.61.02-6.47.02-.74-.17-1.07-.93-1.19-1.61-.26-1.92-.07-1.98,1.58-.14,3.9-.22,7.79-.36,11.69-.06,1.61-.5,3.17-1.9,4.05-2,1.25-4.23,1.11-6.3.18-1.87-.84-2.28-2.6-2.23-4.51.11-4.13.17-8.27.29-12.4.02-.75-.2-1.22-.98-1.09-.66.1-1.74-.49-1.79.89-.15,4.29-.55,8.59-.37,12.87.17,4.09,1.1,5.78,4.39,6.87,1.75.58,3.78.72,5.62.53,2.84-.3,5.11-1.8,5.62-4.84.5-2.97.65-5.99.87-8.14Zm39.33,25.79c.11-.85.26-1.51.28-2.17.17-6.25.28-12.5.51-18.74.05-1.24-.47-1.76-1.47-2.24-1.04-.5-1.71-.14-2.41.58-2.36,2.42-4.73,4.84-7.13,7.22-2.12,2.11-4.29,4.15-6.39,6.27-.3.3-.54,1.08-.37,1.35.68,1.05,2.33,1.04,3.18.1.93-1.04,1.89-2.05,2.78-3.12.5-.6.91-.79,1.7-.4,1.96.96,3.97,1.81,6,2.64.74.3.92.77.86,1.48-.12,1.51-.26,3.01-.29,4.52,0,.43.23,1.02.56,1.28.61.48,1.36.77,2.19,1.21Zm-73.76-11.34c-.23-.35-.4-.67-.62-.93-4.22-5.08-8.42-10.16-12.7-15.19-.35-.41-1.19-.67-1.75-.59-1.51.2-1.89.86-2,2.72-.21,3.69-.45,7.38-.68,11.07-.16,2.54-.35,5.08-.47,7.62-.02.35.23.93.49,1.02,1.02.36,2.4-.77,2.44-1.86.05-1.43.17-2.86.18-4.29,0-.86.38-1.29,1.18-1.53,1.98-.58,3.95-1.18,5.9-1.85.79-.27,1.27-.07,1.72.57.66.94,1.39,1.84,2.08,2.76,1.32,1.76,2.21,1.89,4.23.47Zm93.47,186.56c.69.73,1.42,1.45,2.1,2.22,3.08,3.48,6.17,6.97,9.21,10.48.81.93,1.37.35,1.99-.15.6-.49.84-1.01.22-1.7-2.22-2.49-4.41-5.01-6.62-7.52-1.52-1.72-3.03-3.44-4.52-5.13.17-.27.21-.39.3-.46,1.28-1.08,2.54-2.16,3.85-3.21.65-.52.82-.97.22-1.67-1.03-1.2-1.18-1.24-2.28-.12-.28.28-.58.54-.88.8-3.13,2.71-6.24,5.44-9.39,8.12-.89.76-.34,1.26.1,1.9.49.71.97.69,1.55.16,1.33-1.19,2.66-2.38,4.16-3.72ZM128.47,17.01c.03.07.07.14.1.2.37-.2,1.03-.35,1.06-.6.09-.64,0-1.34-.22-1.95-.07-.19-.81-.22-1.22-.17-2.16.29-4.31.64-6.47.95-2.55.37-5.1.75-7.66,1.08-.86.11-.95.61-.75,1.26.18.6-.06,1.58,1.16,1.36,1.56-.28,3.14-.43,4.69-.77.98-.21,1.3.16,1.41,1.02.24,1.93.49,3.86.76,5.78.47,3.26.98,6.51,1.42,9.78.22,1.65,1.33.92,2.17.88,1.01-.05.79-.81.71-1.42-.23-1.61-.52-3.21-.76-4.82-.52-3.57-1.05-7.15-1.51-10.73-.05-.37.28-1.09.54-1.14,1.51-.32,3.05-.5,4.58-.72Zm76.55,37.01c-.22-.21-.53-.61-.92-.88-2-1.37-4.02-2.71-6.04-4.04-1.21-.8-1.24-1-.37-2.1.44-.56.82-1.16,1.23-1.75,2.46-3.61,4.87-7.26,7.4-10.83.73-1.03.06-1.39-.5-1.93-.64-.62-1.27-.82-1.87.04-.57.81-1.14,1.63-1.69,2.46-2.78,4.17-5.54,8.34-8.33,12.5-.84,1.25-.9,1.41.33,2.24,2.85,1.95,5.73,3.86,8.62,5.75.87.57,2.07-.14,2.14-1.45ZM46.51,226.58c.51-.36.89-.57,1.2-.85,4.34-3.98,8.66-7.97,13.01-11.94.7-.64,1.15-1.2.33-2.08-.86-.91-1.16-.94-2.16-.05-4.45,3.97-8.91,7.93-13.34,11.93-.32.29-.73.96-.6,1.18.37.66.98,1.17,1.56,1.81Zm121.31,37.76c1.53,0,1.62-.1,1.42-1.51-.08-.55-.17-1.1-.29-1.64-.75-3.37-1.51-6.74-2.26-10.11-.46-2.06-.9-4.11-1.34-6.17-.24-1.12-.94-1.11-1.81-.76-.72.29-1.55.32-1.12,1.59.6,1.76.97,3.6,1.38,5.42.91,4.03,1.79,8.07,2.67,12.1.18.8.51,1.33,1.34,1.09Z"></path>
    <path class="cls-1" d="m240.43,137.97c1.19,56.4-43.89,100.92-97,102.48-57.97,1.7-102.25-44.36-103.9-96.94-1.82-58.14,44.85-102.29,96.7-103.98,57.8-1.89,103.67,44.73,104.2,98.44Zm-101.87-96.15c-53.47.74-97.23,44.7-96.77,99.16.45,53.3,44.41,98.15,99.99,97.23,52.59-.87,97.2-44.53,96.42-99.66-.75-53.04-44.34-97.48-99.64-96.73Z"></path>
    <path class="cls-1" d="m255.55,139.63c-.2,11.19-1.73,22.12-4.85,32.84-2.23,7.66-5.36,14.94-8.95,22.04-.39.78-.76,1.6-1.32,2.26-.3.35-1.02.63-1.44.52-.32-.08-.76-.89-.66-1.25.28-1.02.73-2.02,1.26-2.93,3.47-6.02,6.13-12.42,8.12-19.04,1.56-5.2,2.75-10.53,3.76-15.87,1.27-6.73,1.64-13.58,1.5-20.43-.17-8.42-1.33-16.69-3.34-24.87-1.51-6.12-3.47-12.07-6.02-17.81-1.49-3.37-3.29-6.6-4.94-9.9-.43-.85-.8-1.73-1.19-2.6-.29-.67-.09-1.25.6-1.41.37-.08,1.05.12,1.23.41,1.29,2.14,2.54,4.31,3.69,6.53,3.27,6.33,5.84,12.95,7.82,19.8,1.54,5.34,2.89,10.75,3.45,16.29.51,5.14.87,10.29,1.29,15.44Z"></path>
    <path class="cls-1" d="m24.68,138.62c.15-6.8.86-14.97,2.61-23.06,1.62-7.49,3.91-14.75,6.96-21.75,1.76-4.04,3.99-7.87,6.01-11.79.11-.21.24-.52.41-.56.53-.11,1.13-.25,1.61-.09.21.07.37.95.21,1.3-.93,1.98-1.96,3.91-2.97,5.84-4.53,8.68-7.79,17.81-9.89,27.37-1.98,8.99-2.77,18.07-2.57,27.25.23,10.44,2.11,20.63,5.1,30.59,2.17,7.21,5.25,14.06,8.83,20.68.24.45.58.93.61,1.41.03.51-.08,1.27-.42,1.49-.58.39-1.31.25-1.69-.53-.83-1.67-1.66-3.35-2.52-5.01-4.99-9.59-8.32-19.76-10.36-30.35-1.36-7.05-1.93-14.19-1.93-22.81Z"></path>
    <path class="cls-1" d="m109.18,253.97c2.44,3.22,2.87,6.99,4.1,10.48-1.8.46-3.26-.34-3.77-1.92-.82-2.53-1.61-5.08-2.57-7.56-.59-1.53-3.96-3.16-5.53-2.79-.31.07-.54.64-.73,1.03-.14.28-.13.62-.21.92-.57,2.1-1.15,4.2-1.73,6.3-.16.03-.28.09-.38.07-2.44-.51-2.55-.54-1.87-2.98,1.21-4.36,2.56-8.68,3.84-13.03.31-1.06.58-2.14.82-3.23.22-.98.65-1.3,1.69-.96,3.09,1.02,6.23,1.88,9.31,2.93,3.51,1.2,4.51,3.71,3.49,7.32-.6,2.13-2.65,3.39-5.08,3.42-.38,0-.77,0-1.37,0Zm4.01-5.54c0-1.66-.96-2.78-2.95-3.39-1.82-.56-3.66-1.04-5.47-1.61-.82-.26-1.27-.07-1.5.77-.39,1.45-.78,2.91-1.22,4.35-.24.78.12,1.1.78,1.3,1.29.39,2.56.85,3.87,1.16,1.11.27,2.26.51,3.39.53,1.69.03,3.1-1.48,3.09-3.1Z"></path>
    <path class="cls-1" d="m65.57,236.91c.67-.82,1.34-1.64,2.02-2.45,2.39-2.82,4.81-5.63,7.17-8.47.5-.6.91-.71,1.46-.17.53.53,1.43.94.6,1.92-1.76,2.06-3.5,4.13-5.24,6.2-2.25,2.68-4.53,5.34-6.73,8.06-.62.77-.9.68-1.66.09-1.21-.94-1.26-1.98-1.08-3.34.68-5.4,1.25-10.81,1.86-16.22.01-.1-.06-.21-.12-.41-1.52,1.81-3,3.54-4.45,5.29-1.5,1.81-2.98,3.63-4.46,5.45-.85,1.05-1.3,1.14-2.16.43-.95-.78-.96-1.25-.1-2.27,3.78-4.46,7.55-8.93,11.35-13.37.34-.4,1.16-.97,1.31-.86.78.58,1.98.93,1.84,2.24-.17,1.66-.42,3.31-.61,4.97-.44,3.91-.87,7.82-1.3,11.73-.04.34,0,.69,0,1.04.1.05.2.1.3.15Z"></path>
    <path class="cls-1" d="m207.5,242.14c-1.64-2.72-3.22-5.32-4.79-7.93-.86-1.43-1.7-2.88-2.57-4.3-.6-.98-.17-1.47.7-1.95.94-.52,1.33-.08,1.77.67,2.73,4.62,5.48,9.23,8.24,13.84.51.84,1.1,1.64,1.64,2.44-1.74,1.78-2.35,1.84-4.43.83-4.58-2.22-9.18-4.39-13.78-6.56-.33-.15-.72-.17-1.42-.33.74,1.25,1.29,2.19,1.87,3.13,1.89,3.08,3.82,6.14,5.68,9.24.68,1.14-.56,1.37-1.09,1.87-.61.56-1.04.17-1.4-.44-2.16-3.67-4.33-7.32-6.52-10.97-.96-1.6-1.93-3.2-2.95-4.77-.48-.74-.43-1.04.34-1.67,1.22-1,2.13-.63,3.31-.07,4.95,2.36,9.94,4.64,14.91,6.94.09.04.21.02.49.05Z"></path>
    <path class="cls-1" d="m92.45,40.08c-.38-.67-.78-1.33-1.14-2.01-1.86-3.47-3.69-6.95-5.59-10.4-.7-1.26.35-1.51,1.01-1.97.81-.57,1.15,0,1.51.68,2.6,4.92,5.24,9.81,7.87,14.72.13.25.34.47.39.73.14.63.53,1.6.26,1.86-.75.74-1.76,1.22-2.92.6-4.1-2.2-8.2-4.39-12.31-6.56-1-.53-2.04-1-3.33-1.62.2.54.27.83.4,1.08,2.11,3.87,4.22,7.74,6.36,11.6.4.72.49,1.25-.41,1.6-.75.29-1.41,1.08-2.11-.26-2.79-5.31-5.71-10.56-8.52-15.86-.23-.44-.29-1.43-.06-1.56.81-.49,1.55-1.42,2.78-.75,4.6,2.52,9.24,4.98,13.86,7.46.56.3,1.12.59,1.67.88.09-.07.19-.15.28-.22Z"></path>
    <path class="cls-1" d="m169.09,29.17c2.23,3.11,3.24,6.72,4.32,10.35-2.05.34-3.27-.45-3.81-2.06-.78-2.29-1.7-4.54-2.5-6.82-.55-1.55-1.82-2.15-3.21-2.57-3-.91-3.02-.89-3.77,2.12-.4,1.58-.76,3.17-1.16,4.75-.16.65-.25,1.41-1.24,1.23-1.37-.25-1.8-.74-1.53-1.84,1.31-5.45,2.64-10.89,3.98-16.34.2-.81.3-1.96.85-2.29.5-.3,1.55.29,2.35.48,2.28.56,4.57,1.04,6.82,1.69,1.86.54,3.79,1.09,4.74,3.07.93,1.94.84,3.93-.22,5.7-1.05,1.76-2.81,2.51-4.9,2.34-.16-.01-.32,0-.47.01-.03,0-.07.04-.23.16Zm-.61-2.51c2.21.06,3.73-1.02,4.11-2.43.38-1.4-.19-2.64-1.66-3.46-.55-.31-1.14-.56-1.75-.73-1.79-.51-3.59-1.01-5.4-1.42-.28-.06-.9.27-.98.52-.47,1.68-.87,3.38-1.21,5.09-.05.27.25.83.48.89,2.34.6,4.7,1.13,6.4,1.53Z"></path>
    <path class="cls-1" d="m86.61,254.3c-3.68.11-6.6-1.11-9.03-3.29-2.87-2.57-3.96-5.83-2.85-9.62,1.2-4.07,3.51-7.23,7.73-8.53,4.36-1.34,10.23,1.44,11.92,5.68.44,1.09.39,2.4.43,3.62.03.83-.46,1.26-1.39,1.17-.89-.09-1.2-.51-1.29-1.37-.13-1.16-.21-2.42-.72-3.42-1.91-3.73-7.57-4.57-10.59-1.68-1.94,1.85-3.09,4.13-3.55,6.74-.46,2.61,1.06,5.53,3.83,6.82,1.54.71,3.33.98,5.04,1.23,1.06.16,2.87-2.05,2.72-3.14-.03-.25-.32-.53-.56-.68-1.06-.63-2.14-1.22-3.21-1.82-.75-.43-1.36-.89-.69-1.87.59-.85,1.12-.93,2.06-.34,1.67,1.06,3.45,1.98,5.25,2.8.94.43,1.07.84.59,1.69-.63,1.1-1.23,2.23-1.74,3.39-.83,1.87-2.01,3.07-3.92,2.62Z"></path>
    <path class="cls-1" d="m142.88,267.72c-.45-5.48-.87-10.62-1.3-15.77-.1-1.19-.23-2.37-.4-3.55-.14-.93.1-1.39,1.15-1.45,2.3-.13,4.59-.4,6.89-.57,4.93-.35,8.01,1.86,9.31,6.64.9,3.28.89,6.48-.64,9.63-.96,1.98-2.46,3.35-4.52,3.72-3.42.61-6.89.89-10.49,1.33Zm6.2-18.79c-1.38.12-2.78.19-4.15.4-.3.05-.76.6-.74.89.16,2.45.43,4.9.65,7.35.18,2.02.37,4.03.52,6.05.07.88.38,1.26,1.35,1.12,1.3-.19,2.62-.19,3.92-.33,2.91-.31,4.7-1.91,5.34-4.78.55-2.45.08-4.83-.68-7.15-.22-.68-.69-1.33-1.19-1.86-1.35-1.46-3.12-1.81-5.02-1.7Z"></path>
    <path class="cls-1" d="m179.04,258.73c1-.38,1.74-.67,2.48-.95,2.79-1.03,5.59-2.04,8.37-3.11.7-.27,1.06.03,1.12.59.07.6.84,1.42-.23,1.83-4.27,1.61-8.56,3.16-12.83,4.76-.73.27-1.08.08-1.33-.64-1.1-3.15-2.21-6.3-3.37-9.42-.98-2.64-2.01-5.26-3.06-7.87-.35-.87-.18-1.17.75-1.5,3.85-1.36,7.67-2.83,11.47-4.34.96-.38,1.6-.37,2.03.63.41.96.11,1.51-1.07,1.93-2.92,1.03-5.83,2.1-8.77,3.08-.8.27-1.05.69-.82,1.4.43,1.36.9,2.71,1.43,4.04.33.83,1.05.6,1.64.38,2.31-.84,4.6-1.72,6.9-2.59.33-.13.66-.27,1-.39,1.44-.5,1.58-.37,1.98,1.04.24.83-.15,1.05-.78,1.28-2.73.98-5.43,2.02-8.17,2.97-1.01.35-1.46.66-.89,1.84.63,1.31.92,2.78,1.43,4.15.13.35.49.62.72.91Z"></path>
    <path class="cls-1" d="m119.72,266.18c.35-3.4.68-6.64,1-9.88.29-2.93.59-5.85.81-8.78.14-1.88.35-2.06,2.21-1.86,3.79.41,7.59.76,11.39,1.11,1.39.13,1.63.47,1.39,1.83-.18,1.03-.86.85-1.53.78-3-.29-6.01-.59-9.01-.88-.2-.02-.4,0-.6-.03-.85-.09-1.18.19-1.16,1.13.02,1.14-.1,2.31-.34,3.43-.21.99.04,1.39,1.05,1.48,2.85.25,5.7.53,8.54.89.53.07,1.22.49,1.44.94.43.87-.22,1.63-1.24,1.55-1.9-.15-3.79-.38-5.69-.56-1.27-.12-2.54-.23-3.8-.26-.27,0-.75.35-.78.58-.21,1.97-.34,3.94-.49,5.98.28.08.53.2.8.22,3.09.3,6.17.58,9.26.87.16.01.32.02.48.03,1.8.17,1.97.38,1.75,2.57-5.06-.05-10.09-1.03-15.46-1.14Z"></path>
    <path class="cls-1" d="m242.06,214.42c-.26,3.31-2.07,5.63-4.65,7.53-2.11,1.56-4.34,1.84-6.77,1-.78-.27-1.6-.54-1.23-1.64.43-1.25,1.01-1.57,2.14-1.05,1.84.85,3.52.44,4.84-.85,1.11-1.08,2.02-2.42,2.79-3.78.65-1.14.16-2.77-.76-3.58-.87-.77-2.38-.85-3.57-.08-1.2.78-2.29,1.72-3.49,2.5-1.16.76-2.35,1.5-3.59,2.1-1.92.92-3.73.61-5.28-.85-1.39-1.31-2.06-2.84-1.59-4.82.89-3.75,3.29-6.07,6.78-7.38,1.3-.49,2.62-.24,3.78.47.37.23.86.9.75,1.14-.32.74-.66,1.84-1.81,1.41-1.3-.49-2.53-.73-3.73.13-1.49,1.07-2.66,2.38-3.14,4.22-.31,1.22.06,2.25.99,2.99.89.71,1.91.48,2.78-.11,1.45-.98,2.84-2.04,4.29-3.02.92-.62,1.86-1.22,2.85-1.71,3.87-1.9,7.87,1.97,7.6,5.38Z"></path>
    <path class="cls-1" d="m152.03,22.05c-.22,2.15-.38,5.17-.87,8.14-.51,3.04-2.78,4.54-5.62,4.84-1.85.2-3.87.05-5.62-.53-3.29-1.08-4.22-2.78-4.39-6.87-.18-4.28.22-8.58.37-12.87.05-1.39,1.13-.79,1.79-.89.77-.12,1,.34.98,1.09-.12,4.13-.19,8.27-.29,12.4-.05,1.91.36,3.68,2.23,4.51,2.07.92,4.3,1.07,6.3-.18,1.4-.88,1.84-2.44,1.9-4.05.14-3.9.22-7.79.36-11.69.06-1.65.38-1.84,1.98-1.58.76.12.95.45.93,1.19-.06,1.87-.02,3.74-.02,6.47Z"></path>
    <path class="cls-1" d="m191.36,47.84c-.83-.44-1.58-.73-2.19-1.21-.33-.26-.56-.85-.56-1.28.03-1.51.17-3.02.29-4.52.06-.71-.12-1.18-.86-1.48-2.02-.82-4.04-1.68-6-2.64-.8-.39-1.2-.2-1.7.4-.89,1.07-1.85,2.08-2.78,3.12-.85.94-2.5.96-3.18-.1-.17-.27.07-1.05.37-1.35,2.1-2.13,4.27-4.17,6.39-6.27,2.4-2.39,4.77-4.8,7.13-7.22.7-.72,1.37-1.08,2.41-.58,1,.48,1.51.99,1.47,2.24-.23,6.24-.34,12.49-.51,18.74-.02.66-.17,1.32-.28,2.17Zm-8.45-13.27c2.1.92,4.03,1.75,6.11,2.66.19-3.36.38-6.53.56-9.73-2.18,2.3-4.32,4.57-6.67,7.07Z"></path>
    <path class="cls-1" d="m117.6,36.49c-2.02,1.42-2.91,1.29-4.23-.47-.69-.92-1.42-1.82-2.08-2.76-.45-.64-.93-.84-1.72-.57-1.95.67-3.92,1.27-5.9,1.85-.8.24-1.17.67-1.18,1.53-.01,1.43-.13,2.86-.18,4.29-.04,1.09-1.41,2.22-2.44,1.86-.26-.09-.5-.68-.49-1.02.12-2.54.31-5.08.47-7.62.23-3.69.47-7.38.68-11.07.11-1.86.49-2.52,2-2.72.56-.07,1.4.18,1.75.59,4.27,5.03,8.48,10.12,12.7,15.19.22.27.39.58.62.93Zm-14.6-13.89c-.15,3.03-.27,5.91-.44,8.79-.05.85.36.97,1.02.79,1.52-.42,3.04-.87,4.56-1.31.72-.21.72-.68.36-1.19-.34-.48-.77-.91-1.13-1.38-1.44-1.88-2.88-3.76-4.36-5.7Z"></path>
    <path class="cls-1" d="m211.07,223.05c-1.49,1.33-2.83,2.52-4.16,3.72-.59.53-1.07.54-1.55-.16-.44-.64-.99-1.14-.1-1.9,3.15-2.68,6.26-5.41,9.39-8.12.3-.26.6-.52.88-.8,1.11-1.12,1.25-1.08,2.28.12.6.71.43,1.15-.22,1.67-1.3,1.04-2.57,2.13-3.85,3.21-.09.07-.13.19-.3.46,1.49,1.69,3.01,3.41,4.52,5.13,2.2,2.51,4.4,5.02,6.62,7.52.62.7.38,1.22-.22,1.7-.62.5-1.19,1.08-1.99.15-3.05-3.51-6.13-7-9.21-10.48-.68-.77-1.4-1.49-2.1-2.22Z"></path>
    <path class="cls-1" d="m128.47,17.01c-1.53.23-3.07.4-4.58.72-.26.06-.58.77-.54,1.14.46,3.58.99,7.15,1.51,10.73.24,1.61.53,3.21.76,4.82.09.61.31,1.37-.71,1.42-.83.04-1.95.76-2.17-.88-.44-3.26-.96-6.52-1.42-9.78-.27-1.92-.52-3.85-.76-5.78-.11-.86-.43-1.24-1.41-1.02-1.55.34-3.13.49-4.69.77-1.21.22-.97-.76-1.16-1.36-.2-.65-.11-1.15.75-1.26,2.56-.33,5.11-.71,7.66-1.08,2.16-.31,4.31-.66,6.47-.95.41-.06,1.15-.02,1.22.17.22.6.31,1.31.22,1.95-.03.24-.69.4-1.06.6-.03-.07-.07-.14-.1-.2Z"></path>
    <path class="cls-1" d="m205.02,54.02c-.07,1.32-1.28,2.02-2.14,1.45-2.89-1.89-5.77-3.8-8.62-5.75-1.23-.84-1.17-1-.33-2.24,2.79-4.15,5.55-8.33,8.33-12.5.55-.83,1.12-1.64,1.69-2.46.6-.86,1.23-.66,1.87-.04.56.54,1.23.9.5,1.93-2.53,3.56-4.94,7.21-7.4,10.83-.4.59-.78,1.2-1.23,1.75-.87,1.1-.84,1.31.37,2.1,2.02,1.34,4.04,2.68,6.04,4.04.39.27.7.66.92.88Z"></path>
    <path class="cls-1" d="m46.51,226.58c-.57-.63-1.19-1.15-1.56-1.81-.12-.22.28-.89.6-1.18,4.43-3.99,8.89-7.96,13.34-11.93,1-.89,1.3-.86,2.16.05.82.87.37,1.44-.33,2.08-4.35,3.97-8.67,7.96-13.01,11.94-.31.28-.69.49-1.2.85Z"></path>
    <path class="cls-1" d="m167.82,264.34c-.83.23-1.17-.29-1.34-1.09-.88-4.04-1.76-8.07-2.67-12.1-.41-1.82-.79-3.66-1.38-5.42-.43-1.26.4-1.3,1.12-1.59.86-.34,1.57-.36,1.81.76.44,2.06.89,4.12,1.34,6.17.75,3.37,1.51,6.74,2.26,10.11.12.54.21,1.09.29,1.64.19,1.4.11,1.5-1.42,1.51Z"></path>
    <path class="cls-3" d="m138.56,41.82c55.29-.75,98.89,43.69,99.64,96.73.78,55.13-43.83,98.78-96.42,99.66-55.58.92-99.53-43.93-99.99-97.23-.46-54.46,43.3-98.42,96.77-99.16Zm-73.9,40.6c.46,7.37,2.07,14.07,5.67,20.2,4.59,7.82,11.24,12.93,20.15,14.8,6.72,1.41,13.38.71,19.89-1.44,1.86-.61,3.68-1.33,5.61-2.04-2.98,2.76-5.75,5.57-8.8,8.05-1.79,1.45-3.95,2.5-6.06,3.48-1.83.85-3.8.69-5.69-.11-.37-.16-.77-.27-1.16-.4.24.89.63,1.56,1.06,2.21,3.08,4.67,7.29,7.83,12.71,9.29,4.87,1.31,9.78,1.06,14.69.24,9.07-1.52,15.75-5.96,18.48-15.19.24-.82.73-1.01,1.44-.68,1.55.71,3.16,1.34,4.62,2.22,2.09,1.26,4.07,2.7,6.01,4.01.28-2.18-.01-4.37-1.22-6.57-4.22-7.73-10.11-13.88-17.46-18.61-7.82-5.03-16.31-8.44-25.6-9.52-3.43-.4-6.89-.53-10.33-.78,16.77-2.31,31.26,2.38,43.48,14.21-1.82-4.05-3.66-7.96-6.39-11.38-6.84-8.58-15.67-12.53-26.64-11.81-4.85.32-9.47,1.58-14.13,2.78-5.72,1.47-11.51,2.46-17.46,2.07-4.4-.29-8.42-1.57-11.87-4.42-.22-.19-.51-.3-1-.59Zm63.58,86.25c-.14,0-.18,9.72.33,14.53.43,4.05,2.27,7.6,5.44,10.32,3.09,2.66,7.15,2.94,10.46.57,4.21-3.02,6.18-7.43,6.48-12.38.38-6.23.25-12.49.28-18.74.01-2.66.03-5.34-.25-7.99-.39-3.74-1.65-7.2-4.17-10.09-4.47-5.13-10.8-4.85-14.84.6-2.19,2.96-3.5,6.3-3.67,9.93-.21,4.41-.05,8.83-.05,13.25Zm-30.81-.14c-.06,0-.11,0-.17,0,0,2.87-.05,5.73.02,8.6.05,1.98.11,3.99.44,5.94.72,4.18,2.39,7.9,5.78,10.66,3.34,2.72,7.92,2.59,11.14-.28,3.98-3.56,5.57-8.24,5.72-13.33.23-7.75.17-15.52.03-23.28-.08-4.26-1.37-8.23-4.07-11.62-1.44-1.81-3.17-3.28-5.48-3.8-3.21-.72-5.98.22-8.28,2.54-3.26,3.3-4.83,7.41-5.08,11.92-.23,4.2-.05,8.43-.05,12.65Zm85.36-35.79c0-1.04.06-2.07-.01-3.1-.3-4.33-1.22-8.49-3.57-12.23-2.82-4.48-7.82-6.5-12.9-5.12-4.12,1.11-6.55,4.07-8.13,7.81-2.23,5.26-2.48,10.81-2.08,16.41.22,3.11.74,6.17,2.05,9.03,1.45,3.13,3.34,5.93,6.64,7.36,5.58,2.41,12.01.03,14.98-5.48,2.47-4.58,3.08-9.56,3.01-14.67Zm32.48,41.91c0-1.15.07-2.31-.01-3.46-.29-3.92-1.12-7.71-3.07-11.18-4.75-8.42-15.71-8.13-20.16-.57-.54.92-1.06,1.87-1.46,2.86-2.07,5.06-2.32,10.36-1.97,15.72.24,3.68.99,7.22,2.66,10.56,3,5.97,9,8.6,14.79,6.37,3.49-1.34,5.66-4.01,7.09-7.35,1.77-4.14,2.25-8.5,2.13-12.96Zm-55.76,23.18c2.31,0,4.37-.04,6.43.02,1.02.03,1.59-.39,2.04-1.29,4.84-9.66,9.71-19.32,14.58-28.97,7.47-14.8,14.94-29.59,22.41-44.38,2.1-4.15,4.19-8.3,6.29-12.45.24-.48.65-1.02-.35-1.02-1.87,0-3.73.07-5.6.06-.9,0-1.41.31-1.83,1.16-6.58,13.07-13.19,26.11-19.8,39.16-6.41,12.66-12.8,25.33-19.21,37.99-1.59,3.15-3.21,6.29-4.96,9.72Zm-77.85-46.37c0,5.02,0,9.87,0,14.72,0,9.39.02,18.79-.02,28.18,0,1.06.28,1.4,1.34,1.34,1.39-.08,2.78-.02,4.18,0q2.51.03,2.51-2.48c.02-16.87.04-33.75.05-50.62,0-.4-.1-.81-.17-1.36-3.54,1.52-6.9,2.96-10.24,4.42-.21.09-.48.37-.48.57-.04,1.98-.02,3.96-.02,6.07.99-.29,1.85-.54,2.86-.83Z"></path>
    <path class="cls-2" d="m113.19,248.43c0,1.62-1.41,3.14-3.09,3.1-1.14-.02-2.28-.26-3.39-.53-1.31-.32-2.58-.78-3.87-1.16-.66-.2-1.02-.52-.78-1.3.44-1.44.84-2.89,1.22-4.35.22-.84.67-1.03,1.5-.77,1.81.58,3.65,1.06,5.47,1.61,1.99.61,2.95,1.74,2.95,3.39Z"></path>
    <path class="cls-2" d="m168.48,26.66c-1.7-.4-4.06-.92-6.4-1.53-.23-.06-.54-.63-.48-.89.34-1.71.74-3.42,1.21-5.09.07-.26.69-.59.98-.52,1.81.41,3.61.91,5.4,1.42.6.17,1.2.43,1.75.73,1.47.82,2.04,2.06,1.66,3.46-.38,1.41-1.91,2.49-4.11,2.43Z"></path>
    <path class="cls-2" d="m149.07,248.93c1.91-.11,3.67.24,5.02,1.7.49.54.97,1.18,1.19,1.86.76,2.32,1.23,4.7.68,7.15-.65,2.87-2.43,4.48-5.34,4.78-1.3.14-2.62.14-3.92.33-.97.14-1.28-.24-1.35-1.12-.15-2.02-.33-4.04-.52-6.05-.22-2.45-.49-4.9-.65-7.35-.02-.29.44-.85.74-.89,1.37-.21,2.76-.28,4.15-.4Z"></path>
    <path class="cls-2" d="m182.91,34.57c2.36-2.49,4.5-4.76,6.67-7.07-.18,3.2-.37,6.37-.56,9.73-2.08-.91-4.01-1.75-6.11-2.66Z"></path>
    <path class="cls-2" d="m103,22.61c1.48,1.94,2.91,3.82,4.36,5.7.36.47.79.89,1.13,1.38.36.51.36.98-.36,1.19-1.52.44-3.03.89-4.56,1.31-.65.18-1.07.06-1.02-.79.17-2.88.29-5.75.44-8.79Z"></path>
    <path class="cls-1" d="m128.24,168.68c0-4.42-.16-8.84.05-13.25.17-3.63,1.48-6.97,3.67-9.93,4.04-5.46,10.37-5.73,14.84-.6,2.52,2.89,3.78,6.36,4.17,10.09.28,2.64.26,5.32.25,7.99-.03,6.25.1,12.51-.28,18.74-.3,4.95-2.27,9.37-6.48,12.38-3.31,2.37-7.37,2.09-10.46-.57-3.16-2.72-5.01-6.27-5.44-10.32-.51-4.81-.47-14.53-.33-14.53Zm15-.11s.01,0,.02,0c0-6.13,0-12.26,0-18.39,0-.81,0-1.62-.92-2.01-1.47-.63-2.93-.89-4.51-.33-1.21.43-1.82,1.12-1.74,2.46.08,1.35.04,2.71.03,4.06-.01,10.75-.03,21.5-.04,32.25,0,1.56.35,2,1.85,2.48.45.15.92.26,1.39.31,2.25.26,3.91-.95,3.91-2.8,0-6.01,0-12.02,0-18.03Z"></path>
    <path class="cls-1" d="m97.48,155.88c.25-4.52,1.82-8.62,5.08-11.92,2.29-2.32,5.06-3.26,8.28-2.54,2.31.52,4.04,1.99,5.48,3.8,2.7,3.39,4,7.36,4.07,11.62.14,7.76.2,15.53-.03,23.28-.15,5.08-1.73,9.77-5.72,13.33-3.21,2.87-7.79,3.01-11.14.28-3.39-2.76-5.06-6.48-5.78-10.66-.33-1.95-.4-3.95-.44-5.94-.07-2.86-.02-5.73-.02-8.6.06,0-.02-8.45.22-12.65Zm7.88,12.43h-.01c0,5.89,0,11.78,0,17.66,0,2.47,1.23,3.62,3.77,3.41.67-.05,1.33-.23,1.97-.43.94-.29,1.43-.93,1.4-1.96-.05-1.67-.09-3.34-.08-5.01.02-10.66.06-21.32.05-31.99,0-.55-.28-1.29-.69-1.6-.6-.46-1.46-.9-2.17-.85-1.27.09-2.64.33-3.71.95-.49.29-.5,1.63-.5,2.5-.04,5.77-.02,11.54-.02,17.31Z"></path>
    <path class="cls-1" d="m182.79,132.75c.06,5.11-.54,10.08-3.01,14.67-2.97,5.52-9.4,7.9-14.98,5.48-3.3-1.43-5.19-4.23-6.64-7.36-1.32-2.85-1.83-5.92-2.05-9.03-.41-5.6-.15-11.15,2.08-16.41,1.58-3.74,4.01-6.69,8.13-7.81,5.08-1.38,10.09.64,12.9,5.12,2.35,3.74,3.27,7.9,3.57,12.23.07,1.03.01,2.07.01,3.1Zm-8.16-.13c-.07-.01-.14-.03-.21-.04-.1-1.55-.14-3.1-.32-4.64-.26-2.17-.58-4.35-1.94-6.19-1.48-2.01-4.29-1.95-5.61.17-.54.86-.98,1.84-1.21,2.83-1.26,5.56-1.17,11.13.08,16.67.22.97.76,1.95,1.39,2.72,1.45,1.77,4.03,1.64,5.32-.25.57-.83,1.06-1.82,1.24-2.81.51-2.81.84-5.64,1.24-8.47Z"></path>
    <path class="cls-1" d="m215.28,174.66c.12,4.45-.35,8.82-2.13,12.96-1.43,3.34-3.6,6-7.09,7.35-5.79,2.23-11.79-.41-14.79-6.37-1.68-3.34-2.42-6.88-2.66-10.56-.35-5.36-.1-10.66,1.97-15.72.4-.99.92-1.94,1.46-2.86,4.44-7.56,15.41-7.85,20.16.57,1.95,3.47,2.78,7.26,3.07,11.18.09,1.15.01,2.31.01,3.46Zm-18.57.05c.15.01.3.03.46.04,0,1.39-.08,2.79.02,4.17.15,2.19.49,4.35,1.59,6.3,1.44,2.56,4.14,2.81,5.92.48.56-.74,1-1.65,1.23-2.55,1.16-4.61,1.27-9.29.58-13.97-.25-1.7-.72-3.44-1.47-4.98-1.29-2.64-4.46-2.7-6.04-.24-.38.59-.77,1.26-.89,1.93-.52,2.92-.93,5.86-1.39,8.79Z"></path>
    <path class="cls-1" d="m159.52,197.84c1.75-3.43,3.36-6.57,4.96-9.72,6.41-12.66,12.8-25.33,19.21-37.99,6.6-13.05,13.22-26.1,19.8-39.16.42-.84.94-1.16,1.83-1.16,1.87.01,3.73-.06,5.6-.06,1,0,.59.54.35,1.02-2.1,4.15-4.2,8.3-6.29,12.45-7.47,14.79-14.94,29.59-22.41,44.38-4.87,9.65-9.74,19.3-14.58,28.97-.45.89-1.02,1.31-2.04,1.29-2.06-.05-4.12-.02-6.43-.02Z"></path>
    <path class="cls-1" d="m81.67,151.47c-1.01.29-1.87.54-2.86.83,0-2.12-.01-4.1.02-6.07,0-.2.27-.48.48-.57,3.34-1.46,6.7-2.9,10.24-4.42.07.56.17.96.17,1.36-.01,16.87-.03,33.75-.05,50.62q0,2.52-2.51,2.48c-1.39-.02-2.79-.08-4.18,0-1.06.06-1.35-.28-1.34-1.34.04-9.39.02-18.79.02-28.18,0-4.85,0-9.7,0-14.72Z"></path>
    <path class="cls-3" d="m128.62,109.16c.68-.14,1.36-.36,2.05-.4,1.98-.12,3.97-.21,5.96-.25,1.23-.02,2.29.42,3.27,1.22,4.02,3.27,7.57,6.93,10.01,11.55.07.14.12.28.31.73-8.47-5.67-17.33-5.76-26.51-2.91,2.43-1.8,5.03-3.04,7.96-3.62,2.89-.57,5.72-.25,8.6.27-2.96-3.87-6.75-6.12-11.65-6.6Z"></path>
    <path class="cls-3" d="m143.24,168.57c0,6.01,0,12.02,0,18.03,0,1.85-1.67,3.06-3.91,2.8-.47-.05-.94-.17-1.39-.31-1.5-.48-1.85-.92-1.85-2.48,0-10.75.02-21.5.04-32.25,0-1.35.05-2.71-.03-4.06-.08-1.33.52-2.03,1.74-2.46,1.58-.56,3.05-.3,4.51.33.92.39.92,1.2.92,2.01,0,6.13,0,12.26,0,18.39,0,0-.01,0-.02,0Z"></path>
    <path class="cls-3" d="m105.37,168.31c0-5.77-.02-11.54.02-17.31,0-.87.01-2.21.5-2.5,1.07-.62,2.44-.86,3.71-.95.71-.05,1.57.39,2.17.85.41.31.69,1.05.69,1.6.01,10.66-.03,21.32-.05,31.99,0,1.67.03,3.34.08,5.01.03,1.03-.46,1.67-1.4,1.96-.64.2-1.31.38-1.97.43-2.53.21-3.77-.94-3.77-3.41,0-5.89,0-11.78,0-17.66h.01Z"></path>
    <path class="cls-3" d="m174.64,132.61c-.4,2.83-.73,5.66-1.24,8.47-.18.98-.67,1.97-1.24,2.81-1.29,1.89-3.87,2.02-5.32.25-.63-.77-1.17-1.75-1.39-2.72-1.25-5.54-1.34-11.12-.08-16.67.22-.99.67-1.97,1.21-2.83,1.32-2.12,4.12-2.18,5.61-.17,1.35,1.83,1.67,4.02,1.94,6.19.19,1.54.22,3.09.32,4.64.07.01.14.03.21.04Z"></path>
    <path class="cls-3" d="m198.09,165.92c.12-.68.51-1.34.89-1.93,1.58-2.46,4.75-2.4,6.04.24.75,1.54,1.22,3.28,1.47,4.98.69,4.68.57,9.36-.58,13.97-.23.9-.67,1.81-1.23,2.55-1.77,2.33-4.48,2.07-5.92-.48-1.1-1.96-1.44-4.12-1.59-6.3-.1-1.38-.02-2.78-.02-4.17-.15-.01.41-5.91.93-8.84Z"></path>
  </g>
</svg>
