<?xml version="1.0" encoding="UTF-8"?>
<svg xmlns="http://www.w3.org/2000/svg" id="Layer_3" width="280" height="280" viewBox="0 0 280 280">
  <defs>
    <style>.cls-1{fill:none;}.cls-2{fill:#ea0000;}.cls-3{fill:#fff;}.cls-4{fill:#171774;}.cls-5{fill:#17126e;}.cls-6{fill:#24227b;}.cls-7{fill:#232566;}.cls-8{fill:#191a6e;}</style>
  </defs>
  <g id="trace-expanded">
    <circle class="cls-3" cx="139.96" cy="140" r="137.59"></circle>
    <path class="cls-7" d="m2.43,136.01C4.88,59.57,68.6.21,144,2.48c76.53,2.3,136.42,66.29,133.52,142.7-2.88,75.86-66.44,134.92-142.21,132.33C59.83,274.92.35,211.74,2.43,136.01Zm6.11,4.25c-.11,72.68,60.16,133.06,135.08,131.22,70.09-1.72,129.19-60.24,127.9-133.98-1.24-71.03-60.26-130.85-135.17-128.93C65.87,10.37,8.18,68.68,8.54,140.25Z"></path>
    <path class="cls-2" d="m139.92,160.63c27,0,53.99,0,80.99,0,.19,0,.38,0,.56,0,.95.03,1.12.23.82,1.15-1.16,3.49-2.32,6.98-3.55,10.44-.79,2.22-.84,2.21-3.24,2.21-49,0-97.99,0-146.99,0-1.75,0-3.5-.03-5.25,0-.8.01-1.32-.29-1.58-1.04-1.32-3.9-2.66-7.79-3.95-11.7-.32-.98-.18-1.11.82-1.11,27.12,0,54.24,0,81.37,0v.03Z"></path>
    <path class="cls-2" d="m210.14,188.12c-.73,1.02-1.34,1.91-1.98,2.77-2.72,3.67-5.72,7.09-9.03,10.24-.36.34-.98.57-1.48.57-16.84.06-33.68.1-50.52.11-19.87.02-39.74,0-59.61,0-1.62,0-3.25-.04-4.87-.03-.76,0-1.32-.26-1.88-.81-3.73-3.66-7.12-7.62-10.18-11.85-.2-.27-.38-.56-.67-1h140.21Z"></path>
    <path class="cls-4" d="m233.13,200.53c-1.41-1-2.71-1.97-4.07-2.85-.76-.49-.79-.95-.35-1.69,1.54-2.6,3.07-5.21,4.53-7.86,2.38-4.33,4.25-8.89,5.89-13.54,2.22-6.28,3.89-12.7,4.84-19.29.42-2.9.71-5.83.81-8.76.14-4.39.2-8.8.02-13.19-.13-3.1-.73-6.19-1.09-9.28-.59-5.04-1.88-9.93-3.29-14.78-1.51-5.2-3.6-10.17-5.92-15.05-2.54-5.34-5.55-10.42-9.06-15.17-2.41-3.26-5-6.39-7.69-9.43-2.17-2.45-4.61-4.65-6.92-6.97-.46-.46-.95-.9-1.36-1.41-.12-.15-.12-.57,0-.72,1.04-1.29,2.1-2.55,3.2-3.78.11-.12.61-.1.76.04,4.78,4.45,9.4,9.03,13.46,14.17,4.12,5.2,7.88,10.64,10.93,16.52,2.33,4.47,4.52,9.06,6.29,13.78,2.59,6.92,4.46,14.07,5.62,21.4,1.19,7.47,1.58,14.96,1.22,22.49-.37,7.81-1.55,15.51-3.53,23.09-1.89,7.21-4.4,14.19-7.82,20.81-1.95,3.77-4.11,7.42-6.19,11.12-.07.13-.19.24-.28.36Z"></path>
    <path class="cls-4" d="m67,56.49c1.2,1.31,2.37,2.56,3.51,3.83.35.39.39.74-.09,1.18-3.74,3.41-7.3,6.99-10.56,10.88-4.06,4.85-7.77,9.94-10.9,15.43-1.69,2.98-3.29,6.04-4.66,9.18-1.69,3.88-3.35,7.81-4.55,11.86-1.41,4.74-2.46,9.61-3.38,14.47-1.14,5.99-1.51,12.08-1.37,18.18.12,5.19.6,10.33,1.4,15.47.75,4.86,1.91,9.6,3.37,14.28,1.55,4.95,3.37,9.8,5.72,14.42,1.85,3.64,4.01,7.11,6.03,10.66.12.21.23.43.38.71-1.55,1.02-3.05,2.01-4.57,2.99-.51.33-.82,0-1.05-.42-1.89-3.45-3.79-6.89-5.66-10.35-3.8-7.05-6.3-14.59-8.3-22.31-1.5-5.78-2.59-11.65-3.02-17.6-.29-3.98-.24-7.99-.27-11.98-.04-5.13.54-10.21,1.36-15.27,1.25-7.7,3.36-15.17,6.18-22.42,1.56-4,3.53-7.85,5.4-11.72,2.8-5.79,6.47-11.04,10.43-16.07,4.11-5.23,8.55-10.18,13.64-14.5.3-.26.58-.55.95-.91Z"></path>
    <path class="cls-2" d="m178.28,215.65c-9.41,5.12-19.51,7.96-30.05,9.01-16.35,1.63-31.88-1.42-46.56-8.74.01-.09.02-.18.03-.27h76.57Z"></path>
    <path class="cls-8" d="m58.9,224.8c2.1-2.17,4.15-4.29,6.27-6.49-.33.1-.59.16-.84.25-2.02.73-4.05,1.45-6.07,2.2-.51.19-.9.17-1.21-.31-.08-.13-.19-.27-.31-.34-1.75-1.08-1.62-2.46-.79-4.09.72-1.41,1.23-2.93,1.83-4.41.09-.22.13-.46,0-.83-2.09,2.04-4.19,4.08-6.35,6.2-1.02-1.09-2.06-2.15-3.05-3.27-.14-.16-.12-.69.03-.84,3.85-3.69,7.73-7.36,11.62-11.01.17-.16.71-.21.84-.08,1.11,1.1,2.2,2.22,3.2,3.41.25.3.33.95.2,1.33-.91,2.59-1.9,5.15-2.85,7.73-.07.19-.11.39-.21.72.35-.08.59-.1.8-.18,2.46-.81,4.92-1.62,7.37-2.44.91-.31,1.62-.27,2.27.63.7.95,1.59,1.76,2.43,2.59.58.57.65.97-.01,1.58-3.47,3.24-6.89,6.52-10.32,9.79-.16.15-.32.3-.46.46-.84.97-.97.99-1.9.06-.84-.84-1.62-1.72-2.5-2.65Z"></path>
    <path class="cls-8" d="m162.26,246.22c-.47-2.89-.93-5.73-1.38-8.54,1.56-.24,2.91-.43,4.26-.66.59-.1.83.09.94.7.78,4.52,1.6,9.03,2.4,13.54.16.87.31,1.75.48,2.69-1.58.26-2.98.52-4.4.69-.3.04-.7-.23-.96-.46-2.36-2.14-4.7-4.29-7.05-6.44-.08-.08-.19-.12-.55-.33.27,1.65.5,3.08.74,4.5.18,1.05.38,2.09.59,3.13.12.61-.09.97-.71,1.07-1.23.2-2.46.42-3.7.55-.23.02-.68-.31-.72-.53-.92-5.12-1.79-10.26-2.7-15.38-.13-.73.07-1.04.78-1.15.95-.15,1.89-.48,2.84-.5.58-.01,1.28.28,1.72.67,2.38,2.06,4.71,4.19,7.05,6.29.08.07.21.1.35.16Z"></path>
    <path class="cls-8" d="m88.99,245.81c.68-1.67,1.38-3.32,2.04-5,1.33-3.37,2.66-6.73,3.94-10.12.26-.7.59-.87,1.25-.6,2.51,1.03,5.06,1.97,7.52,3.1,2.7,1.24,4.45,3.31,5.01,6.34.88,4.8-3.1,9.88-7.96,9.87-1.59,0-3.23-.32-4.75-.81-2.33-.76-4.57-1.79-7.05-2.79Zm9.97-1c2.66.1,4.43-3.3,4.05-5.4-.33-1.88-1.75-2.64-3.31-3.2-.22-.08-.81.29-.94.58-.74,1.71-1.42,3.46-2.09,5.2-.78,2.02-.69,2.18,1.52,2.69.33.08.67.12.76.13Z"></path>
    <path class="cls-8" d="m110.9,253.81c1.09-5.69,2.18-11.37,3.26-17.02,4.63.86,9.13,1.7,13.64,2.52.56.1.73.29.6.87-.21.88-.33,1.78-.48,2.67-.11.68-.48.85-1.13.72-2.23-.45-4.47-.86-6.71-1.3-.65-.13-1.24-.31-1.33.71-.11,1.22-.05,1.3,1.04,1.48,2.03.33,4.05.73,6.07,1.14.21.04.54.39.52.55-.17,1.23-.41,2.45-.65,3.77-1.43-.25-2.77-.48-4.11-.72-1.01-.18-2.02-.38-3.04-.55-.53-.09-1.05-.1-1.1.62-.05.65-.18,1.35.79,1.51,1.35.23,2.7.49,4.06.74,1.13.21,2.26.45,3.4.64.5.08.6.33.51.78-.18.89-.38,1.77-.48,2.67-.07.63-.33.79-.92.69-2.55-.44-5.1-.83-7.65-1.29-2.05-.36-4.09-.78-6.28-1.2Z"></path>
    <path class="cls-8" d="m185.43,229.01c1.61-.8,3.14-1.59,4.69-2.3.17-.08.67.19.78.41,1.53,3.18,3.1,6.34,4.48,9.58,1.03,2.42.5,4.81-1.17,6.76-2.29,2.67-5.24,4-8.83,3.36-1.94-.35-3.53-1.41-4.46-3.14-1.68-3.13-3.19-6.36-4.78-9.54-.24-.49-.06-.75.38-.95,1.27-.59,2.54-1.19,3.81-1.81.6-.29.87.06,1.09.52.69,1.47,1.36,2.95,2.07,4.41.63,1.32,1.24,2.67,1.96,3.94,1.02,1.82,3.01,2.1,4.27.68.66-.74.57-1.59.23-2.37-.96-2.2-2-4.37-3.02-6.54-.46-.98-.96-1.95-1.49-3.01Z"></path>
    <path class="cls-8" d="m207.56,221.52c-1.48.4-2.84.74-4.17,1.15-.59.18-1.19.45-1.65.84-.32.27-.43.8-.63,1.22.47.12.99.43,1.41.33,1.15-.28,2.24-.79,3.38-1.1,1.05-.28,2.13-.58,3.2-.6,2-.03,3.31,1.19,4.17,2.86.87,1.69.73,3.46-.29,5-2.51,3.81-6.3,5.41-10.68,5.89-.62.07-.91-.12-.97-.78-.1-1.02-.27-2.04-.46-3.05-.13-.68.02-.97.79-.94,1.95.08,3.77-.45,5.48-1.37.66-.35,1.47-.82,1.05-1.71-.4-.83-1.26-.49-1.93-.28-1.16.37-2.28.86-3.44,1.23-3.25,1.06-5.88-.16-6.84-3.16-.58-1.82-.11-3.47,1.02-4.93,1.99-2.58,4.67-4.1,7.79-4.86,1.88-.45,1.89-.42,2.25,1.47.18.94.36,1.87.54,2.78Z"></path>
    <path class="cls-8" d="m67.04,232.26c.32-.28.55-.53.82-.71,4.63-3.07,9.27-6.12,13.89-9.2.7-.46,1.22-.48,1.9.08.91.75,1.93,1.38,2.96,1.96.66.38.85.84.71,1.53-.25,1.19-.51,2.38-.75,3.57-.85,4.28-1.68,8.57-2.53,12.85-.05.27-.17.52-.32.95-1-.65-1.93-1.24-2.86-1.84-.21-.14-.41-.29-.62-.42-1.49-.99-1.52-1-1.11-2.73.17-.71-.06-1.11-.63-1.47-1.24-.79-2.45-1.61-3.66-2.43-.86-.58-1.47-.56-2.08.31-.5.71-.96.64-1.56.25-1.35-.88-2.71-1.76-4.18-2.7Zm14.57-3.76c-.06-.06-.13-.11-.19-.17-1.18.83-2.38,1.65-3.53,2.52-.11.08-.07.64.07.75.61.48,1.27.91,1.95,1.27.15.08.66-.15.71-.32.37-1.34.67-2.7.99-4.06Z"></path>
    <path class="cls-8" d="m233.11,211.78c-1.25,1.4-2.38,2.68-3.53,3.95-.46.51-.99.35-1.54.09-1.37-.64-1.36-.62-2.37.49-.86.95-1.75,1.87-2.63,2.79-.65.68-.83,1.38-.17,2.15.68.79.45,1.43-.24,2.1-.85.82-1.63,1.72-2.42,2.61-.2.23-.31.54-.45.81-.1-.08-.21-.15-.31-.23-1.63-3.57-3.24-7.14-4.88-10.71-.83-1.81-1.68-3.62-2.58-5.4-.26-.51-.21-.89.13-1.27,1.04-1.17,2.06-2.35,3.15-3.46.2-.2.77-.19,1.09-.07,3.88,1.4,7.74,2.83,11.6,4.26,1.64.6,3.27,1.21,5.15,1.9Zm-14.93-.19c-.08.09-.16.17-.24.26.71,1.29,1.41,2.58,2.15,3.85.06.1.46.15.55.06.7-.71,1.37-1.45,2.15-2.3-1.71-.7-3.16-1.29-4.6-1.88Z"></path>
    <path class="cls-8" d="m139.66,239.83c1.74,0,3.39,0,5.04,0,.53,0,.64.26.65.77.09,5.21.2,10.43.36,15.64.02.72-.16.92-.86.92-1.4,0-2.81.08-4.21.14-.54.02-.79-.18-.8-.76-.07-5.31-.15-10.61-.23-15.92,0-.21.02-.43.04-.79Z"></path>
    <path class="cls-5" d="m119.83,25.04c3.79-.05,6.89,2,8.35,5.51,1.37,3.28.58,7.31-1.91,9.81-2.68,2.7-7.49,3.5-11.06,2.03-3.84-1.57-5.61-5.89-5.36-8.97.26-3.28,1.88-5.77,4.84-7.15,1.57-.74,5.11-1.31,5.14-1.23Zm3.18,9.42c.08-.04-.53-2.36-1.22-3.26-1.56-2.06-4.47-1.7-5.63.61-.79,1.58-.68,3.15.26,4.63.93,1.46,2.7,2.19,4.11,1.77,1.37-.41,2.46-2.07,2.48-3.75Z"></path>
    <path class="cls-5" d="m153.54,41.42c.32-1.39.64-2.75.93-4.11.87-4.03,1.75-8.05,2.58-12.08.13-.62.33-.78.93-.65,2.43.56,4.88,1.05,7.3,1.64,3.3.8,5.86,2.56,6.81,5.99,1.31,4.75-1.56,11.21-8.24,10.96-2.38-.09-4.73-.73-7.09-1.13-1.01-.17-2.01-.39-3.21-.62Zm13.27-6.89c-.14-2.33-1.08-3.54-3.39-4.17q-1.49-.41-1.82,1.05c-.43,1.95-.89,3.89-1.27,5.85-.07.35.06.96.31,1.1,1.55.93,3.85.5,4.88-.99.58-.84.87-1.89,1.28-2.84Z"></path>
    <path class="cls-5" d="m109.38,45.13c-1.93.84-3.68,1.63-5.46,2.34-.26.1-.74-.07-.98-.28-.84-.7-1.61-1.47-2.42-2.21-.53-.48-1.8-.55-2.31-.06-.16.15-.2.59-.11.81.35.86.72,1.73,1.19,2.53.39.66.26,1.05-.39,1.33-1.29.56-2.58,1.1-3.87,1.65-.75.32-.92-.29-1.12-.76-1.04-2.44-2.07-4.88-3.1-7.32-1.04-2.47-2.07-4.94-3.15-7.5.5-.23.98-.49,1.49-.7,2.83-1.13,5.63-2.39,8.52-3.32,2.2-.71,4.36-.16,5.81,1.75,1.59,2.08,2.29,4.45,1.13,7.01-.31.69-.3,1.04.39,1.5,1.45.96,2.81,2.05,4.38,3.21Zm-9.62-6.4c0-1.89-1.21-2.83-2.74-2.38-.36.1-.72.22-1.06.37-1.39.59-1.44.75-.77,2.1.07.14.13.28.18.43.74,1.96.98,2.05,2.87,1.03.36-.19.74-.39,1-.68.28-.3.43-.71.51-.86Z"></path>
    <path class="cls-5" d="m133.5,23.39c1.89,0,3.54,0,5.19,0,.59,0,.72.31.7.84-.08,2.87-.14,5.74-.18,8.61,0,.56.04,1.13.16,1.67.24,1.1,1.03,1.77,2.07,1.84,1.31.09,1.92-.24,2.36-1.48.22-.63.32-1.34.33-2.01.05-2.87.06-5.74.05-8.62,0-.67.19-.84.86-.79,1.3.1,2.62.1,3.93.09.7,0,1.02.22,1,.98-.1,3.31-.09,6.62-.25,9.92-.17,3.62-3.1,6.44-6.84,6.7-2.26.15-4.41-.24-6.35-1.49-2.02-1.3-2.91-3.27-2.99-5.54-.12-3.55-.03-7.1-.03-10.71Z"></path>
    <path class="cls-5" d="m78.66,61.75c-2.01-3.05-3.94-5.99-5.89-8.92-1.11-1.66-2.24-3.3-3.38-4.94-.24-.35-.4-.61.07-.91,2.62-1.69,5.16-3.51,7.87-5.04,2.17-1.23,4.47-1.22,6.43.6,1.9,1.77,3.06,3.88,2.41,6.59-.54,2.27-2.24,3.6-4.08,4.79-1.26.82-1.28.85-.43,2.05.43.61.93,1.18,1.32,1.82.13.21.16.74.02.84-1.41,1.07-2.86,2.07-4.34,3.12Zm2.63-13.05c-.29-.65-.45-1.16-.72-1.6-.74-1.18-1.74-1.23-3.29-.22q-1.18.77-.24,2.22c.1.16.21.31.32.46,1.11,1.63,1.13,1.65,2.74.47.47-.34.79-.88,1.19-1.33Z"></path>
    <path class="cls-5" d="m211.77,47.68c-1.13.64-2.09,1.2-3.06,1.74-2.75,1.54-5.51,3.06-8.24,4.62-.38.22-.68.62-.94.99-.85,1.21-1.66,2.45-2.5,3.69-1.5-1-2.82-1.88-4.14-2.75-.5-.33-.4-.71-.12-1.12.63-.93,1.32-1.82,1.88-2.79.34-.6.62-1.3.69-1.98.37-3.72.67-7.45,1-11.18.02-.28.09-.55.15-.96.39.16.73.26,1.03.44.97.57,1.9,1.2,2.88,1.74.71.38.95.87.84,1.67-.24,1.7-.39,3.41-.57,5.12-.04.36,0,.73,0,1.27.63-.33,1.15-.58,1.65-.87,1.28-.72,2.55-1.44,3.82-2.18.6-.35,1.12-.36,1.73.05,1.22.84,2.5,1.61,3.91,2.51Z"></path>
    <path class="cls-5" d="m187.17,47.07c-.54,1.32-1.01,2.56-1.58,3.76-.09.19-.71.31-.99.21-1.63-.62-3.24-1.31-4.85-1.98-1.78-.75-3.55-1.52-5.34-2.25-.72-.29-.91-.59-.56-1.39,2.05-4.72,4.04-9.46,6.01-14.22.24-.57.56-.63,1-.45,1.4.54,2.79,1.09,4.16,1.69.16.07.26.59.18.82-.49,1.35-1.03,2.68-1.59,4-.81,1.89-1.66,3.77-2.47,5.66-.54,1.27-.44,1.43.81,1.95,1.72.71,3.44,1.45,5.22,2.2Z"></path>
    <path class="cls-1" d="m70.78,110.45c-.21.72-.41,1.44-.61,2.16.99-.47,1.79-1,2.56-1.58.48-.36.86-.32,1.32.06.71.57,1.48,1.06,2.25,1.6.09-.22.15-.28.13-.33-.24-.7-.5-1.4-.73-2.11-.38-1.13-.22-1.46.78-2.06.59-.35,1.13-.8,1.69-1.21-.03-.09-.07-.18-.1-.27-.79,0-1.58-.07-2.36.02-.89.1-1.33-.26-1.55-1.09-.21-.8-.48-1.59-.8-2.63-.22.36-.31.45-.34.56-.18.56-.37,1.12-.53,1.69-.39,1.4-.64,1.56-2.11,1.45-.62-.04-1.25,0-1.88,0-.03.1-.05.2-.08.3.51.38,1.01.78,1.54,1.13,1.25.82,1.25.81.81,2.31Z"></path>
    <path class="cls-1" d="m98.73,127.69c.75-.42,1.43-.98,2.13-1.48-.03-.11-.07-.22-.1-.34-.85,0-1.71-.05-2.56.01-.76.06-1.18-.27-1.39-.95-.16-.54-.3-1.08-.46-1.61-.07-.24-.17-.47-.26-.71-.1,0-.19-.01-.29-.02-.29.79-.65,1.57-.87,2.38-.2.75-.6.99-1.35.93-.89-.06-1.79-.01-2.69-.01,0,.09-.02.19-.03.28.78.55,1.57,1.11,2.35,1.66.45.32.64.63.36,1.25-.39.87-.59,1.83-.87,2.75l.29.19c.76-.58,1.54-1.12,2.26-1.74.47-.41.86-.39,1.31-.01.69.57,1.39,1.14,2.3,1.88-.04-.6-.01-1.01-.11-1.39-.14-.54-.35-1.06-.56-1.58-.25-.65-.14-1.09.52-1.47Z"></path>
    <path class="cls-1" d="m110.68,117.68c.48-.3.92-.67,1.38-1.01-.03-.12-.06-.24-.09-.35-.82,0-1.64-.03-2.45,0-.68.03-1.08-.12-1.24-.9-.2-.9-.61-1.76-.93-2.64-.09.01-.19.02-.28.03-.28.81-.64,1.61-.83,2.44-.2.88-.64,1.16-1.52,1.05-.71-.09-1.43-.02-2.15-.02l-.13.39c.5.37.99.76,1.5,1.12,1.13.81,1.21,1.03.76,2.34-.22.63-.46,1.25-.69,1.87.08.07.17.14.25.21.76-.51,1.55-.97,2.27-1.53.55-.43.95-.38,1.48.05.67.55,1.43,1.01,2.15,1.5.07-.07.14-.14.22-.21-.19-.58-.36-1.16-.57-1.74-.59-1.65-.56-1.73.89-2.62Z"></path>
    <path class="cls-1" d="m116.14,90.93c-.35.72-.54,1.53-.8,2.3.09.06.18.12.27.18.7-.49,1.44-.94,2.08-1.5.59-.52,1.02-.51,1.6,0,.65.58,1.4,1.04,2.11,1.55l.25-.21c-.26-.78-.44-1.6-.79-2.34-.36-.78-.25-1.23.52-1.66.75-.42,1.41-1,2.11-1.51-.05-.1-.1-.19-.15-.29-.8,0-1.61-.08-2.4.02-.99.12-1.39-.29-1.57-1.21-.15-.74-.47-1.44-.71-2.16-.1.02-.2.03-.3.05-.06.1-.14.2-.18.31-.16.5-.34,1-.47,1.52-.35,1.42-.38,1.46-1.86,1.48-.78.01-1.56,0-2.34,0,0,.1-.02.2-.03.29.73.52,1.43,1.07,2.19,1.55.68.43.82.88.46,1.62Z"></path>
    <path class="cls-1" d="m98.55,87.48c-1.11.15-1.56-.38-1.82-1.35-.19-.72-.5-1.41-.76-2.11-.53.96-.89,1.84-1.14,2.76-.16.56-.43.73-.99.71-1.01-.04-2.02-.01-3.03-.01.72.73,1.44,1.29,2.22,1.77.66.41.77.88.5,1.57-.3.79-.5,1.61-.75,2.42.09.06.18.13.27.19.68-.51,1.39-.99,2.04-1.54.59-.5,1.06-.59,1.68,0,.6.57,1.34.98,2.13,1.54.05-.26.11-.36.08-.43-.19-.59-.37-1.19-.59-1.77-.48-1.3-.48-1.3.66-2.11.65-.47,1.3-.94,1.95-1.42-.05-.08-.09-.17-.14-.25-.77,0-1.56-.08-2.32.02Z"></path>
    <path class="cls-1" d="m98.69,108.53c.75-.44,1.44-.98,2.15-1.48l-.11-.36c-.74,0-1.48-.04-2.21,0-1.04.07-1.62-.32-1.82-1.38-.14-.72-.48-1.4-.73-2.1-.08.01-.16.02-.24.03-.18.62-.37,1.25-.54,1.87-.42,1.46-.77,1.69-2.26,1.61-.66-.04-1.32,0-1.98,0,.53.59,1.12.99,1.68,1.42,1.22.93,1.22.94.75,2.38-.22.7-.44,1.4-.65,2.1.06.04.12.08.19.12.77-.56,1.55-1.12,2.32-1.69.49-.36.91-.39,1.42.04.68.57,1.45,1.04,2.17,1.55.09-.06.18-.11.26-.17-.28-.8-.53-1.62-.85-2.4-.29-.68-.23-1.15.47-1.55Z"></path>
    <path class="cls-1" d="m64.99,137.24c.73-.41,1.37-1.01,2.04-1.52l-.1-.25c-.98,0-1.96-.02-2.94,0-.54.02-.85-.12-.99-.71-.23-.95-.56-1.88-.85-2.81-.09-.01-.18-.03-.27-.04-.23.65-.45,1.3-.68,1.95-.66,1.93-.13,1.55-2.1,1.59-.67.01-1.33,0-2,0-.02.09-.05.18-.07.27.62.49,1.22,1.03,1.88,1.46.83.54,1.03,1.13.59,2.04-.31.65-.44,1.4-.65,2.1.09.04.18.08.27.12.7-.51,1.4-1.02,2.1-1.53.51-.38.95-.42,1.5.04.67.57,1.45,1.01,2.42,1.66-.12-.59-.16-.91-.26-1.22-.15-.44-.32-.88-.51-1.31-.34-.8-.23-1.39.61-1.86Z"></path>
    <path class="cls-1" d="m112.07,97.06c-.89,0-1.79,0-2.68,0-.74,0-1.1-.32-1.26-1.07-.18-.84-.53-1.65-.81-2.47-.51.96-.86,1.83-1.08,2.74-.16.66-.49.84-1.12.81-.91-.04-1.82-.01-2.74-.01-.03.11-.05.22-.08.33.67.48,1.33.99,2.03,1.43.6.38.78.84.55,1.5-.3.87-.58,1.75-.96,2.91,1.03-.67,1.87-1.12,2.61-1.72.59-.48.97-.41,1.52.05.68.58,1.45,1.05,2.18,1.57.06-.07.12-.13.19-.2-.3-.87-.59-1.75-.89-2.62-.21-.6-.12-1.05.5-1.4.74-.42,1.42-.96,2.13-1.45-.03-.13-.05-.26-.08-.39Z"></path>
    <path class="cls-1" d="m116.14,71.68c-.37.74-.52,1.58-.77,2.38.11.05.21.11.32.16.94-.68,1.88-1.36,2.84-2.06.99.7,1.95,1.37,2.91,2.04.08-.05.16-.1.24-.16-.29-.83-.57-1.67-.86-2.5-.24-.68-.11-1.17.58-1.55.72-.4,1.37-.93,2.05-1.41-.02-.08-.04-.17-.07-.25-.59-.03-1.18-.12-1.75-.07-1.73.14-1.84.08-2.37-1.61-.2-.62-.4-1.24-.6-1.86-.09.01-.18.02-.26.03-.23.66-.46,1.33-.69,1.99-.49,1.41-.49,1.39-1.94,1.37-.72,0-1.44.08-2.15.12-.02.09-.03.19-.05.28.72.51,1.43,1.05,2.17,1.53.63.41.78.83.42,1.56Z"></path>
    <path class="cls-1" d="m75.58,125.85c-.81.04-1.27-.19-1.42-1.07-.14-.81-.49-1.59-.75-2.38-.09,0-.18,0-.27,0-.28.84-.63,1.67-.81,2.53-.16.79-.58,1-1.31.98-.88-.03-1.75,0-2.63,0,.44.62.91,1.02,1.41,1.38,1.37.98,1.47,1.3.83,2.91-.2.5-.36,1.01-.54,1.52l.22.14c.72-.46,1.5-.86,2.15-1.41.68-.57,1.19-.43,1.81.06.66.53,1.37.98,2.06,1.47.11-.38.06-.61-.02-.83-.23-.68-.53-1.34-.69-2.03-.08-.34-.02-.87.2-1.07.56-.52,1.26-.9,1.89-1.36.22-.16.39-.38.58-.57-.04-.09-.07-.17-.11-.26-.86,0-1.73-.04-2.59.01Z"></path>
    <path class="cls-1" d="m86.67,135.48c-.67.05-.94-.22-1.09-.84-.2-.82-.5-1.62-.75-2.44-.1,0-.2,0-.31-.01-.32.83-.75,1.63-.92,2.49-.14.71-.44.83-1.07.8-.95-.04-1.9-.01-2.86-.01-.02.08-.05.15-.07.23.74.58,1.46,1.18,2.22,1.74.54.39.68.8.41,1.44-.33.78-.55,1.6-.81,2.4.08.05.16.1.24.14.54-.35,1.09-.7,1.62-1.06q1.37-.94,2.71.06c.32.24.62.52.96.75.18.12.41.16.66.25.03-.21.07-.31.04-.39-.13-.41-.27-.83-.43-1.23-.77-1.92-.74-2.01,1.09-3.08.22-.13.45-.23.64-.39.21-.18.38-.42.57-.63-.03-.08-.06-.16-.1-.23-.92,0-1.84-.05-2.76.02Z"></path>
    <path class="cls-1" d="m82.18,100.65c-.27.61-.45,1.25-.67,1.88.09.09.18.17.27.26.55-.33,1.15-.61,1.65-1.01.85-.69,1.45-.73,2.33-.06.64.49,1.3.94,1.95,1.42.05-.05.11-.1.16-.15-.32-.87-.63-1.74-.97-2.6-.23-.58-.11-1,.4-1.37.72-.52,1.4-1.09,2.09-1.64-.02-.09-.04-.18-.06-.27-.75,0-1.5-.03-2.25,0-.91.05-1.46-.28-1.65-1.24-.15-.77-.45-1.5-.69-2.25h-.25c-.27.76-.62,1.5-.78,2.28-.2.99-.74,1.25-1.66,1.17-.78-.06-1.57-.01-2.35-.01-.01.11-.02.21-.04.32.68.51,1.34,1.07,2.06,1.53.75.47.78,1.02.46,1.75Z"></path>
    <path class="cls-1" d="m127.28,120.2c-.2.61-.35,1.24-.52,1.87.09.04.18.09.27.13.67-.49,1.36-.94,2-1.46.54-.44.99-.48,1.56-.02.68.56,1.44,1.02,2.16,1.52-.08-1.08-.29-2.01-.61-2.91-.2-.56-.07-.85.4-1.16.76-.5,1.47-1.07,2.2-1.61-.32-.25-.55-.29-.78-.28-.72.01-1.44.02-2.15.07-.53.03-.8-.19-.93-.7-.19-.78-.41-1.56-.65-2.34-.05-.17-.22-.31-.44-.6-.4,1.1-.76,2.02-1.06,2.96-.16.49-.41.69-.95.66-.92-.05-1.85-.01-2.77-.01-.03.09-.06.19-.09.28.5.36.99.74,1.49,1.09,1.36.92,1.37.96.86,2.51Z"></path>
    <path class="cls-1" d="m133.48,136.73c.45-.32.9-.64,1.35-.96-.04-.11-.08-.21-.11-.32-.89,0-1.78-.04-2.67.01-.77.05-1.17-.12-1.3-.99-.12-.81-.5-1.59-.77-2.38-.13.03-.27.05-.4.08-.27.82-.58,1.63-.79,2.47-.15.61-.46.82-1.05.81-.92-.02-1.84,0-2.76,0-.02.08-.05.16-.07.23.35.27.73.51,1.06.81,2.03,1.8,2.08.92,1.03,3.59-.17.43-.15.93-.22,1.39.1.03.2.05.3.08.65-.52,1.31-1.03,1.95-1.56.56-.47,1.07-.5,1.67,0,.67.55,1.42,1.01,2.14,1.51-.02-.65-.18-1.15-.35-1.64q-.69-1.95,1-3.12Z"></path>
    <path class="cls-1" d="m87.43,118.13c.72-.41,1.33-1.01,1.99-1.53-.05-.1-.1-.21-.14-.31-.89,0-1.78-.01-2.67,0-.59.01-.89-.23-1.04-.83-.22-.88-.54-1.72-.81-2.58-.09,0-.19,0-.28.01-.31.87-.67,1.72-.92,2.6-.18.62-.51.86-1.14.83-.87-.03-1.74,0-2.61,0-.04.08-.07.16-.11.24.59.43,1.14.95,1.79,1.27.9.44,1.05,1.01.69,1.89-.32.78-.53,1.6-.79,2.4.09.05.18.1.27.15.73-.52,1.48-1.01,2.18-1.57.55-.45.96-.49,1.53.02.66.58,1.44,1.03,2.16,1.53.09-.07.18-.14.27-.21-.28-.77-.52-1.56-.85-2.31-.31-.71-.28-1.18.49-1.61Z"></path>
    <path class="cls-1" d="m127.4,100.7c-.37.76-.61,1.59-.91,2.38.08.06.15.12.23.18.7-.49,1.45-.93,2.08-1.49.73-.65,1.31-.73,2.07-.01.57.54,1.32.89,1.99,1.32.07-.07.13-.14.2-.2-.29-.78-.54-1.58-.88-2.33-.34-.77-.15-1.29.54-1.73.69-.45,1.33-.96,2-1.45-.03-.09-.06-.18-.09-.27-.79,0-1.58-.02-2.37,0-.87.03-1.38-.3-1.59-1.2-.17-.78-.53-1.51-.8-2.27-.46.8-.77,1.51-.92,2.25-.21,1.01-.78,1.3-1.74,1.2-.72-.07-1.45-.01-2.18-.01-.02.1-.05.19-.07.29.66.5,1.3,1.02,1.97,1.5.69.49.86,1.04.47,1.84Z"></path>
    <path class="cls-1" d="m121.35,127.73c.74-.47,1.43-1.03,2.15-1.55-.02-.07-.04-.15-.06-.22-.36-.02-.71-.06-1.07-.07-2.62-.08-2.61-.08-3.35-2.63-.09-.32-.34-.61-.58-1.02-.33,1.01-.66,1.77-.81,2.55-.18.9-.66,1.16-1.51,1.1-.84-.06-1.69-.01-2.54-.01-.02.09-.03.17-.05.26.71.53,1.38,1.13,2.13,1.58.65.39.73.8.49,1.46-.33.89-.57,1.81-.85,2.72.64-.23,1.12-.56,1.59-.9,1.99-1.46,1.43-1.31,3.36.07.44.31.9.61,1.35.91.06-.08.12-.16.19-.23-.31-.9-.6-1.81-.94-2.7-.24-.62-.03-.97.5-1.31Z"></path>
    <path class="cls-1" d="m127.43,81.31c-.31.86-.59,1.73-.88,2.6.75-.29,1.33-.7,1.88-1.15,1.32-1.07,1.31-1.08,2.72-.06.3.22.59.46.9.67.28.19.57.36,1.07.68-.34-1.06-.5-1.9-.87-2.63-.47-.93-.14-1.4.64-1.89.69-.43,1.29-.99,1.93-1.5-1.01-.21-1.9-.26-2.79-.19-.66.05-1.01-.05-1.16-.8-.18-.88-.56-1.72-.86-2.58-.09-.01-.18-.03-.27-.04-.25.74-.57,1.46-.74,2.22-.22.97-.73,1.35-1.73,1.25-.73-.08-1.47-.02-2.2-.02-.03.09-.05.18-.08.27.63.49,1.19,1.12,1.89,1.44.94.43.83,1,.56,1.73Z"></path>
    <path class="cls-1" d="m110.06,77.79c-1.78-.07-1.78-.08-2.24-1.79-.08-.3-.12-.62-.23-.91-.09-.24-.24-.46-.49-.91-.32,1.02-.67,1.77-.77,2.56-.12.91-.63,1.13-1.4,1.13-.85,0-1.7,0-2.56,0-.03.07-.07.15-.1.22.63.48,1.24.98,1.9,1.42.76.51,1.02,1.08.62,1.98-.32.73-.48,1.54-.7,2.31.09.04.19.09.28.13.59-.49,1.18-.98,1.76-1.48.68-.6,1.34-.68,2.07-.06.63.53,1.31.98,1.98,1.47.08-.07.16-.14.24-.21-.27-.76-.52-1.52-.82-2.27-.28-.7-.2-1.25.47-1.7.75-.51,1.46-1.08,2.19-1.63-.03-.09-.05-.17-.08-.26-.7,0-1.41.02-2.11,0Z"></path>
    <path class="cls-1" d="m110.09,135.46c-1.57,0-1.53-.01-2.02-1.49-.22-.68-.26-1.54-1.16-1.92-.25,1-.45,1.94-.73,2.86-.07.23-.41.52-.65.53-1.02.06-2.05.03-3.15.03.05.27.03.35.07.38.52.43,1.06.85,1.58,1.29,1.12.95,1.11.94.58,2.38-.2.56-.33,1.15-.5,1.72.09.06.18.13.27.19.65-.45,1.35-.84,1.92-1.37.62-.57,1.1-.52,1.72-.04.71.56,1.47,1.05,2.26,1.61.04-.22.08-.28.06-.33-.23-.68-.46-1.36-.69-2.04-.49-1.44-.48-1.42.85-2.26.57-.36,1.09-.8,1.64-1.21l-.14-.32c-.64,0-1.29,0-1.93,0Z"></path>
    <path class="cls-1" d="m119.05,104.43c-.05-.21-.05-.44-.14-.64-.09-.2-.26-.36-.48-.66-.19.52-.31.87-.43,1.21q-.88,2.45-3.53,2.36c-.3,0-.6.11-1.12.21.82.54,1.37,1.03,2.01,1.29.95.38.96,1.05.76,1.83-.22.83-.51,1.65-.77,2.48.04.06.09.12.13.18.77-.51,1.57-.98,2.29-1.55.56-.44.97-.51,1.53,0,.62.58,1.35,1.04,2.03,1.55.08-.05.16-.1.24-.15-.26-.88-.49-1.78-.78-2.65-.2-.59-.11-.98.46-1.33.78-.48,1.5-1.05,2.43-1.72-.75-.07-1.27-.15-1.79-.15-2.32.01-2.32.02-2.86-2.26Z"></path>
    <path class="cls-3" d="m79.81,116.33c.87,0,1.74-.03,2.61,0,.63.02.96-.21,1.14-.83.25-.88.61-1.74.92-2.6.09,0,.19,0,.28-.01.28.86.6,1.71.81,2.58.15.59.44.84,1.04.83.89-.02,1.78,0,2.67,0,.05.1.1.21.14.31-.66.52-1.27,1.12-1.99,1.53-.76.43-.79.9-.49,1.61.33.75.57,1.54.85,2.31-.09.07-.18.14-.27.21-.73-.5-1.51-.95-2.16-1.53-.57-.51-.98-.47-1.53-.02-.69.56-1.45,1.05-2.18,1.57-.09-.05-.18-.1-.27-.15.26-.8.47-1.62.79-2.4.36-.88.2-1.45-.69-1.89-.65-.32-1.2-.84-1.79-1.27.04-.08.07-.16.11-.24Z"></path>
    <path class="cls-3" d="m73.36,103.02c.32,1.04.59,1.83.8,2.63.22.82.66,1.18,1.55,1.09.78-.08,1.57-.02,2.36-.02.03.09.07.18.1.27-.56.41-1.1.85-1.69,1.21-1.01.6-1.16.93-.78,2.06.24.71.49,1.4.74,2.11.01.04-.04.11-.13.33-.77-.54-1.54-1.03-2.25-1.6-.47-.38-.84-.42-1.32-.06-.77.57-1.56,1.11-2.56,1.58.2-.72.4-1.44.61-2.16.44-1.5.44-1.48-.81-2.31-.53-.35-1.03-.75-1.54-1.13.03-.1.05-.2.08-.3.63,0,1.25-.04,1.88,0,1.47.11,1.72-.06,2.11-1.45.16-.57.35-1.13.53-1.69.04-.11.12-.2.34-.56Z"></path>
    <path class="cls-3" d="m125.01,116.33c.92,0,1.85-.03,2.77.01.54.03.79-.17.95-.66.31-.94.66-1.86,1.06-2.96.22.29.39.43.44.6.24.77.46,1.55.65,2.34.12.51.4.73.93.7.72-.05,1.43-.06,2.15-.07.23,0,.46.04.78.28-.73.54-1.44,1.11-2.2,1.61-.47.31-.6.6-.4,1.16.32.9.53,1.83.61,2.91-.72-.5-1.48-.96-2.16-1.52-.57-.47-1.02-.43-1.56.02-.64.52-1.33.98-2,1.46-.09-.04-.18-.09-.27-.13.17-.62.32-1.25.52-1.87.51-1.56.5-1.59-.86-2.51-.51-.35-1-.72-1.5-1.09.03-.09.06-.19.09-.28Z"></path>
    <path class="cls-3" d="m98.9,93.44c-.79-.56-1.53-.97-2.13-1.54-.63-.59-1.09-.51-1.68,0-.65.55-1.36,1.03-2.04,1.54-.09-.06-.18-.13-.27-.19.25-.81.45-1.63.75-2.42.27-.7.16-1.17-.5-1.57-.78-.48-1.5-1.04-2.22-1.77,1.01,0,2.02-.03,3.03.01.56.02.83-.15.99-.71.26-.92.61-1.8,1.14-2.76.26.7.57,1.39.76,2.11.25.97.71,1.5,1.82,1.35.76-.1,1.55-.02,2.32-.02.05.08.09.17.14.25-.65.47-1.3.95-1.95,1.42-1.14.81-1.13.81-.66,2.11.21.58.4,1.18.59,1.77.02.07-.03.17-.08.43Z"></path>
    <path class="cls-3" d="m115.35,112.5c.26-.82.54-1.64.77-2.48.21-.78.19-1.44-.76-1.83-.64-.26-1.19-.75-2.01-1.29.52-.1.82-.22,1.12-.21q2.65.08,3.53-2.36c.12-.34.24-.69.43-1.21.23.3.39.46.48.66.09.19.09.42.14.64.54,2.28.54,2.27,2.86,2.26.52,0,1.04.08,1.79.15-.94.67-1.66,1.24-2.43,1.72-.56.35-.66.74-.46,1.33.29.87.52,1.76.78,2.65-.08.05-.16.1-.24.15-.68-.51-1.41-.98-2.03-1.55-.56-.52-.98-.44-1.53,0-.72.57-1.52,1.04-2.29,1.55-.04-.06-.09-.12-.13-.18Z"></path>
    <path class="cls-3" d="m125.05,77.87c.73,0,1.47-.06,2.2.02.99.11,1.51-.27,1.73-1.25.17-.76.49-1.48.74-2.22.09.01.18.03.27.04.3.86.68,1.7.86,2.58.15.75.5.85,1.16.8.88-.07,1.78-.02,2.79.19-.64.51-1.24,1.07-1.93,1.5-.78.48-1.11.96-.64,1.89.37.73.53,1.57.87,2.63-.49-.31-.79-.48-1.07-.68-.31-.21-.6-.45-.9-.67-1.4-1.02-1.4-1.01-2.72.06-.55.45-1.13.86-1.88,1.15.29-.87.57-1.74.88-2.6.27-.74.37-1.31-.56-1.73-.7-.32-1.27-.95-1.89-1.44.03-.09.05-.18.08-.27Z"></path>
    <path class="cls-3" d="m118.67,84.11c.24.72.56,1.42.71,2.16.18.92.58,1.33,1.57,1.21.79-.1,1.6-.02,2.4-.02.05.1.1.19.15.29-.7.51-1.36,1.09-2.11,1.51-.77.43-.88.88-.52,1.66.35.74.53,1.55.79,2.34-.08.07-.17.14-.25.21-.71-.51-1.46-.97-2.11-1.55-.59-.52-1.01-.52-1.6,0-.64.56-1.38,1-2.08,1.5-.09-.06-.18-.12-.27-.18.26-.77.45-1.57.8-2.3.36-.75.22-1.2-.46-1.62-.76-.48-1.46-1.03-2.19-1.55,0-.1.02-.2.03-.29.78,0,1.56,0,2.34,0,1.48-.02,1.51-.06,1.86-1.48.13-.51.3-1.01.47-1.52.04-.11.12-.21.18-.31.1-.02.2-.03.3-.05Z"></path>
    <path class="cls-3" d="m92.72,112.62c.22-.7.43-1.4.65-2.1.46-1.44.47-1.45-.75-2.38-.56-.43-1.15-.83-1.68-1.42.66,0,1.32-.03,1.98,0,1.5.09,1.85-.15,2.26-1.61.18-.63.36-1.25.54-1.87.08-.01.16-.02.25-.03.25.7.59,1.38.73,2.1.21,1.07.78,1.45,1.82,1.38.73-.05,1.47,0,2.21,0,.04.12.07.24.11.36-.71.5-1.4,1.05-2.15,1.48-.69.4-.75.87-.47,1.55.33.78.57,1.6.85,2.4l-.26.17c-.73-.51-1.49-.98-2.17-1.55-.51-.43-.93-.4-1.42-.04-.77.57-1.54,1.12-2.32,1.69-.06-.04-.12-.08-.19-.12Z"></path>
    <path class="cls-3" d="m87.7,103.14c-.65-.47-1.31-.93-1.95-1.42-.88-.67-1.48-.63-2.33.06-.5.4-1.1.68-1.65,1.01-.09-.09-.18-.17-.27-.26.22-.63.41-1.27.67-1.88.32-.73.29-1.28-.46-1.75-.72-.45-1.38-1.01-2.06-1.53l.04-.32c.78,0,1.57-.05,2.35.01.92.07,1.46-.19,1.66-1.17.16-.78.51-1.52.78-2.27.08,0,.17,0,.25,0,.24.75.53,1.49.69,2.25.19.95.73,1.28,1.65,1.24.75-.04,1.5,0,2.25,0l.06.27c-.7.55-1.38,1.12-2.09,1.64-.52.37-.63.79-.4,1.37.34.86.65,1.73.97,2.6-.05.05-.11.1-.16.15Z"></path>
    <path class="cls-3" d="m110.17,83.86c-.66-.49-1.35-.94-1.98-1.47-.73-.62-1.39-.54-2.07.06-.58.51-1.17.99-1.76,1.48-.09-.04-.19-.09-.28-.13.23-.77.38-1.58.7-2.31.4-.9.15-1.47-.62-1.98-.66-.44-1.27-.94-1.9-1.42.03-.07.07-.15.1-.22.85,0,1.7,0,2.56,0,.77,0,1.28-.22,1.4-1.13.11-.78.45-1.54.77-2.56.25.45.4.67.49.91.1.29.15.61.23.91.46,1.71.46,1.72,2.24,1.79.7.03,1.41,0,2.11,0,.03.09.05.17.08.26-.73.55-1.43,1.12-2.19,1.63-.67.45-.75.99-.47,1.7.3.74.55,1.51.82,2.27-.08.07-.16.14-.24.21Z"></path>
    <path class="cls-3" d="m79.67,135.47c.95,0,1.91-.03,2.86.01.62.03.92-.09,1.07-.8.17-.86.6-1.66.92-2.49h.31c.26.82.55,1.62.75,2.45.15.62.41.89,1.09.84.92-.06,1.84-.02,2.76-.02.03.08.06.16.1.23-.19.21-.36.45-.57.63-.19.16-.42.26-.64.39-1.83,1.07-1.86,1.16-1.09,3.08.16.4.3.82.43,1.23.03.08-.02.18-.04.39-.25-.09-.48-.13-.66-.25-.34-.23-.63-.5-.96-.75q-1.35-1.01-2.71-.06c-.53.37-1.08.71-1.62,1.06-.08-.05-.16-.1-.24-.14.27-.8.49-1.62.81-2.4.27-.64.13-1.05-.41-1.44-.76-.56-1.48-1.16-2.22-1.74.02-.08.05-.15.07-.23Z"></path>
    <path class="cls-3" d="m96.1,122.61c.09.24.19.47.26.71.16.54.3,1.08.46,1.61.2.69.62,1.01,1.39.95.85-.06,1.71-.01,2.56-.01.03.11.07.22.1.34-.71.5-1.38,1.06-2.13,1.48-.66.37-.77.82-.52,1.47.2.52.42,1.04.56,1.58.1.38.07.79.11,1.39-.91-.75-1.61-1.31-2.3-1.88-.45-.37-.84-.39-1.31.01-.72.62-1.5,1.16-2.26,1.74-.1-.06-.19-.12-.29-.19.28-.92.49-1.87.87-2.75.27-.62.09-.93-.36-1.25-.78-.55-1.57-1.1-2.35-1.66,0-.09.02-.19.03-.28.9,0,1.79-.05,2.69.01.75.05,1.15-.18,1.35-.93.22-.81.57-1.59.87-2.38.1,0,.19.01.29.02Z"></path>
    <path class="cls-3" d="m123.45,68.58c-.68.48-1.33,1.01-2.05,1.41-.69.38-.81.87-.58,1.55.29.83.57,1.66.86,2.5-.08.05-.16.1-.24.16-.96-.67-1.92-1.34-2.91-2.04-.96.7-1.9,1.38-2.84,2.06-.11-.05-.21-.11-.32-.16.25-.8.4-1.64.77-2.38.36-.73.21-1.15-.42-1.56-.74-.49-1.45-1.02-2.17-1.53l.05-.28c.72-.04,1.44-.13,2.15-.12,1.46.02,1.46.04,1.94-1.37.23-.66.46-1.33.69-1.99.09-.01.18-.02.26-.03.2.62.41,1.24.6,1.86.53,1.69.64,1.74,2.37,1.61.58-.05,1.17.04,1.75.07.02.08.04.17.07.25Z"></path>
    <path class="cls-3" d="m129.98,132.1c.27.79.66,1.57.77,2.38.13.87.53,1.04,1.3.99.89-.06,1.78-.01,2.67-.01.04.11.08.21.11.32-.45.32-.9.64-1.35.96q-1.69,1.18-1,3.12c.17.49.33.99.35,1.64-.72-.5-1.47-.96-2.14-1.51-.6-.49-1.1-.47-1.67,0-.64.53-1.3,1.04-1.95,1.56-.1-.03-.2-.05-.3-.08.07-.47.05-.97.22-1.39,1.06-2.66,1-1.78-1.03-3.59-.33-.29-.71-.54-1.06-.81.02-.08.05-.16.07-.23.92,0,1.84-.01,2.76,0,.59.01.9-.2,1.05-.81.2-.84.52-1.65.79-2.47.13-.03.27-.05.4-.08Z"></path>
    <path class="cls-3" d="m73.41,122.4c.26.79.6,1.57.75,2.38.16.88.61,1.12,1.42,1.07.86-.05,1.73-.01,2.59-.01l.11.26c-.19.19-.36.42-.58.57-.63.46-1.33.83-1.89,1.36-.22.2-.27.74-.2,1.07.16.69.46,1.36.69,2.03.08.22.12.45.02.83-.69-.49-1.4-.94-2.06-1.47-.61-.49-1.12-.64-1.81-.06-.65.55-1.43.94-2.15,1.41-.07-.05-.15-.09-.22-.14.18-.51.35-1.02.54-1.52.64-1.61.54-1.93-.83-2.91-.5-.36-.96-.76-1.41-1.38.88,0,1.76-.02,2.63,0,.72.03,1.14-.18,1.31-.98.18-.86.53-1.69.81-2.53.09,0,.18,0,.27,0Z"></path>
    <path class="cls-3" d="m102.55,116.3c.72,0,1.44-.07,2.15.02.88.11,1.32-.18,1.52-1.05.19-.83.55-1.63.83-2.44.09-.01.19-.02.28-.03.32.88.74,1.73.93,2.64.17.78.57.93,1.24.9.82-.04,1.64,0,2.45,0,.03.12.06.24.1.35-.46.34-.9.71-1.38,1.01-1.45.89-1.48.97-.89,2.62.2.57.38,1.16.57,1.74-.07.07-.14.14-.22.21-.72-.5-1.48-.95-2.15-1.5-.52-.43-.92-.48-1.48-.05-.72.56-1.51,1.02-2.27,1.53-.08-.07-.17-.14-.25-.21.23-.62.47-1.24.69-1.87.45-1.31.38-1.53-.76-2.34-.51-.36-1-.75-1.5-1.12.04-.13.08-.26.13-.39Z"></path>
    <path class="cls-3" d="m112.14,97.46c-.71.49-1.39,1.03-2.13,1.45-.62.36-.71.8-.5,1.4.3.87.6,1.75.89,2.62-.06.07-.12.13-.19.2-.73-.52-1.5-.99-2.18-1.57-.54-.46-.93-.53-1.52-.05-.73.59-1.57,1.05-2.61,1.72.38-1.16.66-2.04.96-2.91.23-.66.05-1.12-.55-1.5-.7-.44-1.35-.95-2.03-1.43.03-.11.05-.22.08-.33.91,0,1.83-.03,2.74.01.63.03.96-.15,1.12-.81.22-.9.57-1.77,1.08-2.74.28.82.63,1.63.81,2.47.16.75.52,1.08,1.26,1.07.89-.01,1.79,0,2.68,0,.03.13.05.26.08.39Z"></path>
    <path class="cls-3" d="m102.4,135.46c1.1,0,2.13.03,3.15-.03.23-.01.58-.3.65-.53.29-.91.48-1.86.73-2.86.9.39.93,1.24,1.16,1.92.48,1.48.44,1.49,2.02,1.49.64,0,1.29,0,1.93,0,.05.11.09.21.14.32-.54.4-1.07.85-1.64,1.21-1.33.84-1.34.82-.85,2.26.23.68.47,1.36.69,2.04.02.05-.02.12-.06.33-.79-.56-1.55-1.05-2.26-1.61-.61-.48-1.1-.53-1.71.04-.57.53-1.28.92-1.92,1.37-.09-.06-.18-.13-.27-.19.16-.57.29-1.16.5-1.72.52-1.43.54-1.43-.58-2.38-.52-.44-1.06-.85-1.58-1.29-.04-.03-.02-.12-.07-.38Z"></path>
    <path class="cls-3" d="m67.03,135.71c-.68.51-1.31,1.11-2.04,1.52-.84.47-.95,1.05-.61,1.86.18.43.36.86.51,1.31.1.3.14.63.26,1.22-.97-.65-1.75-1.09-2.42-1.66-.55-.46-.99-.42-1.5-.04-.7.51-1.4,1.02-2.1,1.53-.09-.04-.18-.08-.27-.12.21-.7.33-1.45.65-2.1.44-.92.24-1.51-.59-2.04-.66-.43-1.26-.97-1.88-1.46.02-.09.05-.18.07-.27.67,0,1.33.01,2,0,1.97-.04,1.44.34,2.1-1.59.22-.65.45-1.3.68-1.95.09.01.18.03.27.04.29.94.62,1.86.85,2.81.14.59.45.72.99.71.98-.03,1.96,0,2.94,0,.03.08.07.17.1.25Z"></path>
    <path class="cls-3" d="m132.86,103.09c-.67-.43-1.42-.78-1.99-1.32-.76-.72-1.34-.63-2.07.01-.64.56-1.38,1-2.08,1.49-.08-.06-.15-.12-.23-.18.3-.8.54-1.62.91-2.38.39-.8.22-1.35-.47-1.84-.67-.48-1.32-1-1.97-1.5.02-.1.05-.19.07-.29.73,0,1.46-.06,2.18.01.96.1,1.53-.2,1.74-1.2.16-.74.46-1.46.92-2.25.27.75.63,1.49.8,2.27.2.91.71,1.23,1.59,1.2.79-.03,1.58,0,2.37,0,.03.09.06.18.09.27-.66.49-1.31,1-2,1.45-.69.45-.88.96-.54,1.73.34.76.59,1.55.88,2.33-.07.07-.13.14-.2.2Z"></path>
    <path class="cls-3" d="m123.5,126.18c-.71.52-1.4,1.08-2.15,1.55-.53.34-.74.69-.5,1.31.34.89.63,1.8.94,2.7-.06.08-.12.16-.19.23-.45-.3-.91-.6-1.35-.91-1.93-1.37-1.37-1.53-3.36-.07-.47.34-.94.67-1.59.9.28-.91.52-1.83.85-2.72.25-.66.16-1.07-.49-1.46-.76-.45-1.43-1.05-2.13-1.58.02-.09.03-.17.05-.26.85,0,1.7-.04,2.54.01.85.06,1.33-.2,1.51-1.1.15-.79.48-1.54.81-2.55.24.42.48.7.58,1.02.74,2.55.74,2.55,3.35,2.63.36.01.71.04,1.07.07.02.07.04.15.06.22Z"></path>
    <path class="cls-2" d="m224.02,133.08c-.96.07-1.93.1-2.9.1-25.9.02-51.8.03-77.71.04-.74,0-1.48-.06-2.19-.1-.07-.18-.13-.26-.13-.35,0-4.25.02-8.5.01-12.75,0-.57.27-.68.75-.66,1.15.05,2.31.1,3.47.1,9.34,0,18.68.02,28.03,0,16.12-.02,32.24-.05,48.36-.07.68,0,.84-.25.63-.85-1.41-4.06-2.81-8.13-4.27-12.18-.1-.29-.62-.61-.95-.62-4.56-.09-9.11-.17-13.67-.17-20.51,0-41.03.03-61.54.06-.57,0-.84-.11-.83-.78.04-3.75.02-7.5.03-11.25,0-1.67,0-1.66,1.66-1.66,21.96,0,43.93,0,65.89,0,.4,0,.8-.18,1.41-.32-.49-.57-.86-.94-1.15-1.37-2.67-3.87-5.83-7.31-9.06-10.71-.84-.88-1.69-1.32-2.92-1.31-7,.04-14,0-21,.01-11.37,0-22.75.02-34.12.05-.49,0-.76-.07-.75-.64.03-4.16.04-8.31.04-12.47,0-.63.22-.79.83-.76,1.62.07,3.25.1,4.87.1,9.37-.01,18.74-.04,28.11-.06,1.26,0,2.52,0,3.79,0,.02-.11.03-.22.05-.33-.87-.37-1.77-.69-2.61-1.12-3.46-1.77-7.13-2.95-10.8-4.17-5.36-1.78-10.86-2.82-16.44-3.48-2.01-.24-4.05-.36-6.08-.35-.61,0-1.23.03-1.84.04v91.82c.86,0,1.73,0,2.59,0,26.81,0,53.62,0,80.43.02.58,0,.87-.13.87-.77-.01-4.09,0-8.18,0-12.27,0-.61-.25-.82-.86-.78Z"></path>
    <path class="cls-6" d="m130.85,55.31c-.5.01-.65.27-.49.75.18.56.39,1.13.49,1.71.12.71.49.91,1.17.87.91-.05,1.82-.01,2.73-.01.02.12.05.24.07.37-.74.49-1.48,1-2.23,1.48-.59.38-.75.82-.45,1.5.39.88.67,1.81,1,2.72-.9-.38-1.72-.81-2.34-1.44-.73-.73-1.26-.66-1.97-.03-.6.53-1.32.93-1.99,1.39-.08-.08-.16-.15-.25-.23.31-.83.61-1.66.93-2.49.22-.58.11-.99-.45-1.34-.77-.49-1.5-1.06-2.24-1.59.02-.11.05-.22.07-.34.89,0,1.77.04,2.66-.02.36-.02.89-.17,1.02-.42.38-.79.6-1.65.95-2.67-2.77.5-5.34.82-7.84,1.45-3.72.94-7.39,2.07-11.06,3.2-1.4.43-1.48.79-.97,2.15.25.69.46,1.39.69,2.08-.58-.1-1.01-.33-1.4-.61q-1.8-1.27-3.58.04c-.17.13-.31.32-.49.43-.18.11-.4.17-.75.31.08-.65.13-1.12.21-1.81-.75.35-1.33.6-1.9.9-1.65.88-3.31,1.75-4.93,2.68-.31.18-.68.84-.59.98.26.38.72.69,1.16.86.32.13.74-.03,1.11,0,.53.03,1.06.11,1.59.17.01.09.03.19.04.28-.64.42-1.25.88-1.92,1.26-.79.45-1.01.98-.62,1.85.34.74.52,1.55.78,2.33-.09.06-.19.13-.28.19-.67-.48-1.37-.92-1.99-1.46-.58-.51-1.08-.5-1.67-.06-.71.53-1.44,1.03-2.16,1.54-.07-.04-.14-.08-.21-.13.25-.82.5-1.63.76-2.45.21-.65.19-1.23-.4-1.69-.58-.45-1.14-.24-1.63.13-2.02,1.52-4.03,3.05-6.01,4.62-.22.17-.29.64-.28.97,0,.33.23.65.29.98.15.86.61,1.21,1.51,1.12.83-.08,1.68-.02,2.52-.02.02.09.05.18.07.27-.67.49-1.29,1.07-2.02,1.44-.76.39-.87.9-.63,1.61.29.84.59,1.68.97,2.76-.48-.27-.77-.4-1.04-.58-.52-.35-1.02-.72-1.53-1.09-.48-.34-.89-.4-1.4.05-.69.6-1.49,1.07-2.42,1.73.07-.48.08-.75.16-1,.19-.59.41-1.18.64-1.76.38-.95-.32-1.37-.9-1.83-.57-.45-.97-.08-1.35.33-1.76,1.94-3.54,3.87-5.27,5.84-.29.33-.58,1.06-.42,1.26.26.35.87.53,1.36.59.81.09,1.64.02,2.46.02.02.09.05.17.07.26-.38.3-.74.61-1.13.89-2.06,1.51-1.89,1.03-1.03,3.43.15.43.27.88.4,1.31-.09.05-.18.09-.26.14-.67-.5-1.37-.96-2-1.5-.65-.56-1.21-.62-1.87,0-.6.56-1.28,1.02-1.93,1.53-.09-.05-.17-.11-.26-.16.24-.87.49-1.74.73-2.61-.61.6-1.11,1.28-1.55,2-1.47,2.39-2.93,4.78-4.39,7.18-.46.75-.54,1.51,0,2.28.15.21.17.51.31.97-.47-.25-.72-.37-.96-.52-.42-.27-.65-.16-.84.3-1.23,2.97-2.52,5.91-3.72,8.89-.57,1.4-.99,2.86-1.48,4.3,1.97.53,2.5.26,3-1.44.11-.36.16-.73.28-1.09.09-.26.26-.5.52-1,.35,1.06.67,1.83.85,2.63.19.85.67,1.09,1.47,1.05.81-.05,1.63-.01,2.44-.01.03.12.05.25.08.37-.44.31-.87.65-1.33.93-1.57.95-1.6,1.03-.99,2.75.19.55.3,1.13.45,1.7-.1.06-.19.11-.29.17-.67-.49-1.34-.97-1.99-1.46-.54-.4-.99-.49-1.56.03-.65.59-1.42,1.06-2.14,1.58-.07-.04-.14-.07-.21-.11.27-.87.52-1.75.8-2.62.27-.85.13-1.47-.82-1.75-.23-.07-.45-.19-.82-.36-.14.41-.28.72-.36,1.04-2.18,9.08-3.11,18.27-2.56,27.6.03.59.25.8.86.8,9.31-.04,18.62-.07,27.93-.07,19.04,0,38.08,0,57.12,0V55.05c-3.38.05-6.76.16-10.14.25Zm-43.9,64.43c.33.75.57,1.54.85,2.31-.09.07-.18.14-.27.21-.73-.5-1.51-.95-2.16-1.53-.57-.51-.98-.47-1.53-.02-.69.56-1.45,1.05-2.18,1.57-.09-.05-.18-.1-.27-.15.26-.8.47-1.62.79-2.4.36-.88.2-1.45-.69-1.89-.65-.32-1.2-.84-1.79-1.27.04-.08.07-.16.11-.24.87,0,1.74-.03,2.61,0,.63.02.96-.21,1.14-.83.25-.88.61-1.74.92-2.6.09,0,.19,0,.28-.01.28.86.6,1.71.81,2.58.15.59.44.84,1.04.83.89-.02,1.78,0,2.67,0,.05.1.1.21.14.31-.66.52-1.27,1.12-1.99,1.53-.76.43-.79.9-.49,1.61Zm-7.25-22.69c.78,0,1.57-.05,2.35.01.92.07,1.46-.19,1.66-1.17.16-.78.51-1.52.78-2.27h.25c.24.74.53,1.48.69,2.25.19.95.73,1.28,1.65,1.24.75-.04,1.5,0,2.25,0,.02.09.04.18.06.27-.7.55-1.38,1.12-2.09,1.64-.52.37-.63.79-.4,1.37.34.86.65,1.73.97,2.6-.05.05-.11.1-.16.15-.65-.47-1.31-.93-1.95-1.42-.88-.67-1.48-.63-2.33.06-.5.4-1.1.68-1.65,1.01-.09-.09-.18-.17-.27-.26.22-.63.41-1.27.67-1.88.32-.73.29-1.28-.46-1.75-.72-.45-1.38-1.01-2.06-1.53.01-.11.02-.21.04-.32Zm-11.2,9.66c.63,0,1.25-.04,1.88,0,1.47.11,1.72-.06,2.11-1.45.16-.57.35-1.13.53-1.69.04-.11.12-.2.34-.56.32,1.04.59,1.83.8,2.63.22.82.66,1.18,1.55,1.09.78-.08,1.57-.02,2.36-.02.03.09.07.18.1.27-.56.41-1.1.85-1.69,1.21-1.01.6-1.16.93-.78,2.06.24.71.49,1.4.73,2.11.01.04-.04.11-.13.33-.77-.54-1.54-1.03-2.25-1.6-.47-.38-.84-.42-1.32-.06-.77.57-1.56,1.11-2.56,1.58.2-.72.4-1.44.61-2.16.44-1.5.44-1.48-.81-2.31-.53-.35-1.03-.75-1.54-1.13.03-.1.05-.2.08-.3Zm-4.13,32.38c.18.43.36.86.51,1.31.1.3.14.63.26,1.22-.97-.65-1.75-1.09-2.42-1.66-.55-.46-.99-.42-1.5-.04-.7.51-1.4,1.02-2.1,1.53-.09-.04-.18-.08-.27-.12.21-.7.33-1.45.65-2.1.44-.92.24-1.51-.59-2.04-.66-.43-1.26-.97-1.88-1.46.02-.09.05-.18.07-.27.67,0,1.33.01,2,0,1.97-.04,1.44.34,2.1-1.59.22-.65.45-1.3.68-1.95.09.01.18.03.27.04.29.94.62,1.86.85,2.81.14.59.45.72.99.71.98-.03,1.96,0,2.94,0l.1.25c-.68.51-1.31,1.11-2.04,1.52-.84.47-.95,1.05-.61,1.86Zm13.32-12.42c-.63.46-1.33.83-1.89,1.36-.22.2-.27.74-.2,1.07.16.69.46,1.36.69,2.03.08.22.12.45.02.83-.69-.49-1.4-.94-2.06-1.47-.61-.49-1.12-.64-1.81-.06-.65.55-1.43.94-2.15,1.41l-.22-.14c.18-.51.35-1.02.54-1.52.64-1.61.54-1.93-.83-2.91-.5-.36-.96-.76-1.41-1.38.88,0,1.76-.02,2.63,0,.72.03,1.14-.18,1.31-.98.18-.86.53-1.69.81-2.53.09,0,.18,0,.27,0,.26.79.6,1.57.75,2.38.16.88.61,1.12,1.42,1.07.86-.05,1.73-.01,2.59-.01.04.09.07.17.11.26-.19.19-.36.42-.58.57Zm11.25,9.66c-.19.16-.42.26-.64.39-1.83,1.07-1.86,1.16-1.09,3.08.16.4.3.82.43,1.23.03.08-.02.18-.04.39-.25-.09-.48-.13-.66-.25-.34-.23-.63-.5-.96-.75q-1.35-1.01-2.71-.06c-.53.37-1.08.71-1.62,1.06-.08-.05-.16-.1-.24-.14.27-.8.49-1.62.81-2.4.27-.64.13-1.05-.41-1.44-.76-.56-1.48-1.16-2.22-1.74.02-.08.05-.15.07-.23.95,0,1.91-.03,2.86.01.62.03.92-.09,1.07-.8.17-.86.6-1.66.92-2.49.1,0,.2,0,.31.01.26.81.55,1.61.75,2.44.15.62.41.89,1.09.84.92-.06,1.84-.02,2.76-.02.03.08.06.16.1.23-.19.21-.36.45-.57.63Zm24.65-68.02c.72-.04,1.44-.13,2.15-.12,1.46.02,1.46.04,1.94-1.37.23-.66.46-1.33.69-1.99.09-.01.18-.02.26-.03.2.62.41,1.24.6,1.86.53,1.69.64,1.74,2.37,1.61.58-.05,1.17.04,1.75.07.02.08.04.17.07.25-.68.48-1.33,1.01-2.05,1.41-.69.38-.81.87-.58,1.55.29.83.57,1.66.86,2.5-.08.05-.16.1-.24.16-.96-.67-1.91-1.34-2.91-2.04-.96.7-1.9,1.38-2.84,2.06-.11-.05-.21-.11-.32-.16.25-.8.4-1.64.77-2.38.36-.73.21-1.15-.42-1.56-.74-.49-1.45-1.02-2.17-1.53.02-.09.03-.19.05-.28Zm-.08,19.16c.78,0,1.56,0,2.34,0,1.48-.02,1.51-.06,1.86-1.48.13-.51.3-1.01.47-1.52.04-.11.12-.21.18-.31.1-.02.2-.03.3-.05.24.72.56,1.42.71,2.16.18.92.58,1.33,1.57,1.21.79-.1,1.6-.02,2.4-.02.05.1.1.19.15.29-.7.51-1.36,1.09-2.11,1.51-.77.43-.88.88-.52,1.66.35.74.53,1.55.79,2.34l-.25.21c-.71-.51-1.46-.97-2.11-1.55-.59-.52-1.01-.52-1.6,0-.64.56-1.38,1-2.08,1.5-.09-.06-.18-.12-.27-.18.26-.77.45-1.57.8-2.3.36-.75.22-1.2-.46-1.62-.76-.48-1.46-1.03-2.19-1.55,0-.1.02-.2.03-.29Zm-15.31,41.69c.2.52.42,1.04.56,1.58.1.38.07.79.11,1.39-.91-.75-1.61-1.31-2.3-1.88-.45-.37-.84-.39-1.31.01-.72.62-1.5,1.16-2.26,1.74l-.29-.19c.28-.92.49-1.87.87-2.75.27-.62.09-.93-.36-1.25-.78-.55-1.57-1.1-2.35-1.66,0-.09.02-.19.03-.28.9,0,1.79-.05,2.69.01.75.05,1.15-.18,1.35-.93.22-.81.57-1.59.87-2.38.1,0,.19.01.29.02.09.24.19.47.26.71.16.54.3,1.08.46,1.61.2.69.62,1.01,1.39.95.85-.06,1.71-.01,2.56-.01.03.11.07.22.1.34-.71.5-1.38,1.06-2.13,1.48-.66.37-.77.82-.52,1.47Zm.01-19.08c.33.78.57,1.6.85,2.4-.09.06-.18.11-.26.17-.73-.51-1.49-.98-2.17-1.55-.51-.43-.93-.4-1.42-.04-.77.57-1.54,1.12-2.32,1.69-.06-.04-.12-.08-.19-.12.22-.7.43-1.4.65-2.1.46-1.44.47-1.45-.75-2.38-.56-.43-1.15-.83-1.68-1.42.66,0,1.32-.03,1.98,0,1.5.09,1.85-.15,2.26-1.61.18-.63.36-1.25.54-1.87.08-.01.16-.02.24-.03.25.7.59,1.38.73,2.1.21,1.07.78,1.45,1.82,1.38.73-.05,1.47,0,2.21,0l.11.36c-.71.5-1.4,1.05-2.15,1.48-.69.4-.75.87-.47,1.55Zm.83-20.96c-1.14.81-1.13.81-.66,2.11.21.58.4,1.18.59,1.77.02.07-.03.17-.08.43-.79-.56-1.53-.97-2.13-1.54-.63-.59-1.09-.51-1.68,0-.65.55-1.36,1.03-2.04,1.54-.09-.06-.18-.13-.27-.19.25-.81.45-1.63.75-2.42.27-.7.16-1.17-.5-1.57-.78-.48-1.5-1.04-2.22-1.77,1.01,0,2.02-.03,3.03.01.56.02.83-.15.99-.71.26-.92.61-1.8,1.14-2.76.26.7.57,1.39.76,2.11.25.97.71,1.5,1.82,1.35.76-.1,1.55-.02,2.32-.02.05.08.09.17.14.25-.65.47-1.3.95-1.95,1.42Zm10.73,31.18c.2.57.38,1.16.57,1.74-.07.07-.14.14-.22.21-.72-.5-1.48-.95-2.15-1.5-.52-.43-.92-.48-1.48-.05-.72.56-1.51,1.02-2.27,1.53-.08-.07-.17-.14-.25-.21.23-.62.47-1.24.69-1.87.45-1.31.38-1.53-.76-2.34-.51-.36-1-.75-1.5-1.12l.13-.39c.72,0,1.44-.07,2.15.02.88.11,1.32-.18,1.52-1.05.19-.83.55-1.63.83-2.44.09-.01.19-.02.28-.03.32.88.74,1.73.93,2.64.17.78.57.93,1.24.9.82-.04,1.64,0,2.45,0,.03.12.06.24.09.35-.46.34-.9.71-1.38,1.01-1.45.89-1.48.97-.89,2.62Zm.23-21.4c-.62.36-.71.8-.5,1.4.3.87.6,1.75.89,2.62-.06.07-.12.13-.19.2-.73-.52-1.5-.99-2.18-1.57-.54-.46-.93-.53-1.52-.05-.73.59-1.57,1.05-2.61,1.72.38-1.16.66-2.04.96-2.91.23-.66.05-1.12-.55-1.5-.7-.44-1.35-.95-2.03-1.43.03-.11.05-.22.08-.33.91,0,1.83-.03,2.74.01.63.03.96-.15,1.12-.81.22-.9.57-1.77,1.08-2.74.28.82.63,1.63.81,2.47.16.75.52,1.08,1.26,1.07.89-.01,1.79,0,2.68,0,.03.13.05.26.08.39-.71.49-1.39,1.03-2.13,1.45Zm.51,38.07c-1.33.84-1.34.82-.85,2.26.23.68.47,1.36.69,2.04.02.05-.02.12-.06.33-.79-.56-1.55-1.05-2.26-1.61-.61-.48-1.1-.53-1.72.04-.57.53-1.28.92-1.92,1.37-.09-.06-.18-.13-.27-.19.16-.57.29-1.16.5-1.72.52-1.43.54-1.43-.58-2.38-.52-.44-1.06-.85-1.58-1.29-.04-.03-.02-.12-.07-.38,1.1,0,2.13.03,3.15-.03.23-.01.58-.3.65-.53.29-.91.48-1.86.73-2.86.9.39.93,1.24,1.16,1.92.48,1.48.44,1.49,2.02,1.49.64,0,1.29,0,1.93,0l.14.32c-.54.4-1.07.85-1.64,1.21Zm-.46-57.3c-.67.45-.75.99-.47,1.7.3.74.55,1.51.82,2.27-.08.07-.16.14-.24.21-.66-.49-1.35-.94-1.98-1.47-.73-.62-1.39-.54-2.07.06-.58.51-1.17.99-1.76,1.48-.09-.04-.19-.09-.28-.13.23-.77.38-1.58.7-2.31.4-.9.15-1.47-.62-1.98-.66-.44-1.27-.94-1.9-1.42.03-.07.07-.15.1-.22.85,0,1.7,0,2.56,0,.77,0,1.28-.22,1.4-1.13.11-.78.45-1.54.77-2.56.25.45.4.67.49.91.1.29.15.61.23.91.46,1.71.46,1.72,2.24,1.79.7.03,1.41,0,2.11,0,.03.09.05.17.08.26-.73.55-1.43,1.12-2.19,1.63Zm10.78,49.36c.34.89.63,1.8.94,2.7-.06.08-.12.16-.19.23-.45-.3-.91-.6-1.35-.91-1.93-1.37-1.37-1.53-3.36-.07-.47.34-.94.67-1.59.9.28-.91.52-1.83.85-2.72.25-.66.16-1.07-.49-1.46-.76-.45-1.43-1.05-2.13-1.58.02-.09.03-.17.05-.26.85,0,1.7-.04,2.54.01.85.06,1.33-.2,1.51-1.1.15-.79.48-1.54.81-2.55.24.42.48.7.58,1.02.74,2.55.74,2.55,3.35,2.63.36.01.71.04,1.07.07.02.07.04.15.06.22-.71.52-1.4,1.08-2.15,1.55-.53.34-.74.69-.5,1.31Zm.41-20.49c-.56.35-.66.74-.46,1.33.29.87.52,1.76.78,2.65-.08.05-.16.1-.24.15-.68-.51-1.41-.98-2.03-1.55-.56-.52-.98-.44-1.53,0-.72.57-1.52,1.04-2.29,1.55-.04-.06-.09-.12-.13-.18.26-.82.54-1.64.77-2.48.21-.77.19-1.44-.76-1.83-.64-.26-1.19-.75-2.01-1.29.52-.1.82-.22,1.12-.21q2.65.08,3.53-2.36c.12-.34.24-.69.43-1.21.23.3.39.46.48.66.09.19.09.42.14.64.54,2.28.54,2.27,2.86,2.26.52,0,1.04.08,1.79.15-.93.67-1.66,1.24-2.43,1.72Zm3.79-30.69c.73,0,1.47-.06,2.2.02.99.11,1.51-.27,1.73-1.25.17-.76.49-1.48.74-2.22.09.01.18.03.27.04.3.86.68,1.7.86,2.58.15.75.5.85,1.16.8.88-.07,1.78-.02,2.79.19-.64.51-1.24,1.07-1.93,1.5-.78.48-1.11.96-.64,1.89.37.73.53,1.57.87,2.63-.49-.31-.79-.48-1.07-.68-.31-.21-.6-.45-.9-.67-1.4-1.02-1.4-1.01-2.72.06-.55.45-1.13.86-1.88,1.15.29-.87.57-1.74.88-2.6.27-.74.37-1.31-.56-1.73-.7-.32-1.27-.95-1.89-1.44.03-.09.05-.18.08-.27Zm-.03,19.2c.73,0,1.46-.06,2.18.01.96.1,1.53-.2,1.74-1.2.16-.74.46-1.46.92-2.25.27.75.63,1.49.8,2.27.2.91.71,1.23,1.59,1.2.79-.03,1.58,0,2.37,0,.03.09.06.18.09.27-.66.49-1.31,1-2,1.45-.69.45-.88.96-.54,1.73.34.76.59,1.55.88,2.33-.07.07-.13.14-.2.2-.67-.43-1.42-.78-1.99-1.32-.76-.72-1.34-.63-2.07.01-.64.56-1.38,1-2.08,1.49-.08-.06-.15-.12-.23-.18.3-.8.54-1.62.91-2.38.39-.8.22-1.35-.47-1.84-.67-.48-1.32-1-1.97-1.5.02-.1.05-.19.07-.29Zm-.02,19.25c.92,0,1.85-.03,2.77.01.54.03.79-.17.95-.66.31-.94.66-1.86,1.06-2.96.22.29.39.43.44.6.24.77.46,1.55.65,2.34.12.51.4.73.93.7.72-.05,1.43-.06,2.15-.07.23,0,.46.04.78.28-.73.54-1.44,1.11-2.2,1.61-.47.31-.6.6-.4,1.16.32.9.53,1.83.61,2.91-.72-.5-1.48-.96-2.16-1.52-.57-.47-1.02-.43-1.56.02-.64.52-1.33.98-2,1.46-.09-.04-.18-.09-.27-.13.17-.62.32-1.25.52-1.87.51-1.56.5-1.59-.86-2.51-.51-.35-1-.72-1.49-1.09.03-.09.06-.19.09-.28Zm7.48,23.53c.17.49.33.99.35,1.64-.72-.5-1.47-.96-2.14-1.51-.6-.49-1.1-.47-1.67,0-.64.53-1.3,1.04-1.95,1.56-.1-.03-.2-.05-.3-.08.07-.47.05-.97.22-1.39,1.06-2.66,1-1.78-1.03-3.59-.33-.29-.71-.54-1.06-.81.02-.08.05-.16.07-.23.92,0,1.84-.01,2.76,0,.59.01.9-.2,1.05-.81.2-.84.52-1.65.79-2.47.13-.03.27-.05.4-.08.27.79.66,1.57.77,2.38.13.87.53,1.04,1.3.99.89-.06,1.78-.01,2.67-.01.04.11.08.21.11.32-.45.32-.9.64-1.35.96q-1.69,1.18-1,3.12Z"></path>
  </g>
</svg>
